<?xml version="1.0" standalone="no"?><!DOCTYPE svg PUBLIC "-//W3C//DTD SVG 1.1//EN" "http://www.w3.org/Graphics/SVG/1.1/DTD/svg11.dtd"><svg t="1548293316302" class="icon" style="" viewBox="0 0 1085 1024" version="1.1" xmlns="http://www.w3.org/2000/svg" p-id="17279" xmlns:xlink="http://www.w3.org/1999/xlink" width="211.9140625" height="200"><defs><style type="text/css"></style></defs><path d="M818.695498 905.89199c-7.809239 32.224332-25.761513 57.447276-57.447276 57.447276l-718.090955 0 100.532734-473.94003c7.539955-33.750275 25.58199-57.447276 57.357515-57.447276l660.823202 0c31.685763 0 57.357515 25.761513 57.357515 57.447276L818.695498 905.89199 818.695498 905.89199 818.695498 905.89199zM157.962058 388.866502l646.371621 0L804.333679 332.406601c0-31.775525-25.761513-57.447276-57.447276-57.447276l-344.683658 0 0-52.061594c0-31.685763-25.761513-57.447276-57.447276-57.447276L57.429324 165.450454c-31.685763 0-57.447276 25.761513-57.447276 57.447276l0 682.99426 100.442972-459.578211C107.875214 415.076822 126.276294 388.866502 157.962058 388.866502L157.962058 388.866502 157.962058 388.866502z" p-id="17280"></path><path d="M392.020214 845.683654c0.919156 4.136204 3.217047 7.81283 6.893673 10.570299l70.775045 54.689807c3.217047 2.297891 6.893673 3.676626 10.570299 3.676626 2.757469 0 5.514939-0.459578 7.81283-1.838313 5.974517-2.757469 9.651142-9.191564 9.651142-16.085237l0-17.92355 0-15.166081c47.336556-6.434095 92.37522-31.251318 123.166961-73.072936 56.52812-76.749561 44.119508-185.669597-28.493849-247.253078-79.966609-68.477153-199.916522-55.608964-263.338315 26.655536-37.685413 48.255712-46.876978 109.379614-31.251318 164.069421 4.595782 15.166081 21.600176 22.519332 35.387522 15.166081l0 0c11.489455-5.974517 17.463972-19.302285 13.787346-31.251318-11.029877-39.983304-3.217047-84.562391 25.73638-119.030757 43.65993-51.47276 120.409491-61.123902 175.558877-22.059754 60.664324 43.200352 72.153779 127.762743 26.655536 185.669597-20.221441 25.73638-47.796134 42.281195-77.668718 47.796134l0-0.459578 0-4.595782 0-18.383128c0-6.893673-3.676626-13.327768-9.651142-16.085237-2.757469-1.378735-5.514939-1.838313-7.81283-1.838313-3.676626 0-7.353251 1.378735-10.570299 3.676626l-70.775045 55.149385c-4.595782 3.217047-6.893673 9.191564-7.353251 14.706503 0 0.919156 0 1.838313 0 2.757469 0 0-0.459578 0.459578-0.919156 0.919156C391.101058 845.683654 391.560636 845.683654 392.020214 845.683654z" p-id="17281"></path></svg>