<?xml version="1.0" standalone="no"?><!DOCTYPE svg PUBLIC "-//W3C//DTD SVG 1.1//EN" "http://www.w3.org/Graphics/SVG/1.1/DTD/svg11.dtd"><svg t="1548292984153" class="icon" style="" viewBox="0 0 1024 1024" version="1.1" xmlns="http://www.w3.org/2000/svg" p-id="14612" xmlns:xlink="http://www.w3.org/1999/xlink" width="200" height="200"><defs><style type="text/css"></style></defs><path d="M841.514667 840.064c8.917333-7.978667 19.328-19.882667 19.328-32.298667v-102.272c-17.834667 11.434667-39.210667 22.357333-64 31.786667-79.957333 30.762667-186.197333 47.658667-299.392 47.658667-112.725333 0-218.965333-16.896-298.410667-47.658667a366.506667 366.506667 0 0 1-64.042667-31.786667v102.784c0 11.946667 10.410667 23.808 19.370667 31.786667 16.896 14.378667 42.666667 28.8 74.453333 40.704 70.997333 26.325333 166.826667 41.216 269.098667 41.216 102.272 0 197.632-14.421333 269.098667-41.216 32.298667-11.946667 58.069333-26.325333 74.496-40.704zM134.997333 498.986667v102.741333c0 21.845333 35.242667 50.176 89.386667 70.997333 70.485333 27.306667 170.24 43.221333 273.066667 43.221334 103.765333 0 203.52-15.914667 274.56-43.221334 61.013333-23.338667 85.888-49.621333 89.344-66.56v-107.178666c-17.877333 11.392-39.68 22.314667-64.042667 31.744-79.445333 31.274667-186.197333 48.170667-299.392 48.170666-113.194667 0-219.434667-16.896-299.349333-48.170666a360.832 360.832 0 0 1-63.573334-31.744z m18.858667-342.613334c-8.96 7.978667-19.370667 19.882667-19.370667 31.317334V192.128c3.498667 16.896 28.330667 43.221333 88.874667 66.56 70.997333 27.306667 170.794667 43.178667 274.090667 43.178667 103.253333 0 203.050667-15.872 274.048-43.178667 53.589333-20.906667 88.362667-48.64 88.874666-70.528V187.733333c0-11.946667-10.453333-23.338667-19.370666-31.317333-16.896-14.378667-42.666667-28.757333-74.496-40.704-70.954667-26.282667-166.826667-41.216-269.056-41.216-102.272 0-197.632 14.421333-269.098667 41.216-32.298667 11.946667-58.112 26.325333-74.496 40.704z m706.986667 238.336V291.413333c-17.834667 11.392-39.210667 22.314667-64 31.744-79.445333 31.274667-185.728 48.170667-299.392 48.170667-113.237333 0-219.477333-16.896-299.392-47.658667a361.045333 361.045333 0 0 1-63.573334-31.274666V397.653333c2.517333 17.365333 26.837333 43.690667 88.874667 68.010667 70.997333 27.818667 170.794667 43.690667 274.090667 43.690667 103.253333 0 203.050667-15.872 274.048-43.690667 54.101333-21.333333 89.344-49.152 89.344-70.997333z m70.528 207.018667v206.037333c-0.512 38.229333-23.850667 66.56-43.221334 83.925334-23.338667 20.352-55.594667 38.741333-96.298666 53.632-79.445333 29.269333-183.210667 45.653333-293.930667 45.653333-110.72 0-214.954667-16.384-293.888-45.653333-40.746667-14.933333-73.002667-33.28-96.341333-53.632-19.84-17.365333-43.178667-46.165333-43.178667-83.925334V196.608C64 193.621333 64 190.634667 64 187.648c0-37.717333 23.850667-66.517333 43.178667-83.882667 23.338667-20.352 55.637333-38.741333 96.341333-53.632C282.965333 20.906667 386.218667 4.949333 496.938667 4.949333c110.72 0 214.954667 16.384 293.930666 45.653334 40.704 14.933333 72.96 33.28 96.298667 53.674666 19.84 17.365333 43.178667 45.653333 43.178667 83.882667v0.981333h0.512v403.626667c0.512 2.986667 0.512 5.973333 0.512 8.96z m-188.16 211.498667a34.56 34.56 0 0 1 34.730666-34.730667 34.56 34.56 0 0 1 34.773334 34.730667 34.56 34.56 0 0 1-34.773334 34.773333 34.56 34.56 0 0 1-34.773333-34.773333z m0-209.493334a34.56 34.56 0 0 1 34.730666-34.773333 34.56 34.56 0 0 1 34.773334 34.773333 34.56 34.56 0 0 1-34.773334 34.730667 34.56 34.56 0 0 1-34.773333-34.730667z m-0.512-203.093333a34.56 34.56 0 0 1 34.730666-34.730667 34.56 34.56 0 0 1 34.773334 34.773334 34.56 34.56 0 0 1-34.773334 34.730666 34.56 34.56 0 0 1-34.730666-34.730666z" p-id="14613"></path></svg>