<?xml version="1.0" standalone="no"?><!DOCTYPE svg PUBLIC "-//W3C//DTD SVG 1.1//EN" "http://www.w3.org/Graphics/SVG/1.1/DTD/svg11.dtd"><svg t="1583823323525" class="icon" viewBox="0 0 1024 1024" version="1.1" xmlns="http://www.w3.org/2000/svg" p-id="4141" xmlns:xlink="http://www.w3.org/1999/xlink" width="200" height="200"><defs><style type="text/css"></style></defs><path d="M512 512m-512 0a512 512 0 1 0 1024 0 512 512 0 1 0-1024 0Z" fill="#F0F0F0" p-id="4142"></path><path d="M512 0C309.012 0 133.62 118.13 50.804 289.392h922.39C890.38 118.13 714.986 0 512 0z" fill="#FF9811" p-id="4143"></path><path d="M512 1024c202.986 0 378.38-118.13 461.196-289.392H50.804C133.62 905.87 309.012 1024 512 1024z" fill="#6DA544" p-id="4144"></path><path d="M512 512m-178.086 0a178.086 178.086 0 1 0 356.172 0 178.086 178.086 0 1 0-356.172 0Z" fill="#0052B4" p-id="4145"></path><path d="M512 512m-111.304 0a111.304 111.304 0 1 0 222.608 0 111.304 111.304 0 1 0-222.608 0Z" fill="#F0F0F0" p-id="4146"></path><path d="M512 374.652l34.338 77.876 84.608-9.202L580.674 512l50.272 68.674-84.608-9.202L512 649.348l-34.338-77.876-84.608 9.2L443.326 512l-50.272-68.674 84.608 9.202z" fill="#0052B4" p-id="4147"></path></svg>