<?xml version="1.0" standalone="no"?><!DOCTYPE svg PUBLIC "-//W3C//DTD SVG 1.1//EN" "http://www.w3.org/Graphics/SVG/1.1/DTD/svg11.dtd"><svg t="1548293201509" class="icon" style="" viewBox="0 0 1024 1024" version="1.1" xmlns="http://www.w3.org/2000/svg" p-id="14949" xmlns:xlink="http://www.w3.org/1999/xlink" width="200" height="200"><defs><style type="text/css"></style></defs><path d="M375.606627 834.523601 240.469413 834.523601 240.469413 910.798798 451.734517 910.798798 378.529309 837.597613Z" p-id="14950"></path><path d="M351.786152 654.816706 109.700873 654.816706 109.700873 170.553421 850.476998 170.553421 850.476998 350.683964 902.817161 313.303612 959.327468 369.81058 959.327468 66.091254 0.850402 66.091254 0.850402 770.3183 351.786152 770.3183Z" p-id="14951"></path><path d="M1023.148574 713.692628 1023.148574 600.851631l-86.168982-14.347776c-3.503944-10.642384-7.777446-20.935822-12.731474-30.825053l50.771371-71.045079-79.781243-79.777975-70.958959 50.677193c-9.925453-5.028527-20.290947-9.320273-31.008472-12.842493l-14.348364-86.016049L666.073759 356.674399l-14.3105 85.97921c-10.717525 3.52222-21.046178 7.851828-30.972654 12.842493l-70.956912-50.677193-79.763846 79.760578 50.751927 71.062476c-4.953005 9.888208-9.2306 20.181645-12.731474 30.824029l-86.205823 14.423501 0 112.840998 86.387979 14.384615c3.505991 10.568706 7.742652 20.75265 12.716124 30.549783l-50.917709 71.338768 79.763846 79.758532 71.450166-51.02614c9.725901 4.89959 19.909238 9.139148 30.404696 12.58769l14.423069 86.585007 112.847668 0 14.438419-86.585007c10.477038-3.448542 20.624558-7.65126 30.388323-12.58769l71.450166 51.04456 79.781243-79.776951-50.9392-71.319325c4.976542-9.816576 9.214227-20.00052 12.718171-30.549783L1023.148574 713.692628zM722.516525 747.095389c-49.613964 0-89.804938-40.189328-89.804938-89.803305 0-49.617048 40.189951-89.804329 89.804938-89.804329 49.616011 0 89.806985 40.186258 89.806985 89.804329C812.32351 706.906062 772.132536 747.095389 722.516525 747.095389z" p-id="14952"></path></svg>