<?xml version="1.0" standalone="no"?><!DOCTYPE svg PUBLIC "-//W3C//DTD SVG 1.1//EN" "http://www.w3.org/Graphics/SVG/1.1/DTD/svg11.dtd"><svg t="1548239481308" class="icon" style="" viewBox="0 0 1037 1024" version="1.1" xmlns="http://www.w3.org/2000/svg" p-id="4163" xmlns:xlink="http://www.w3.org/1999/xlink" width="202.5390625" height="200"><defs><style type="text/css"></style></defs><path d="M644.508 874.758 6.415 874.758l0-94.34c0-125.47 251.412-188.68 377.352-188.68 52.442 0 126.642 10.96 195.382 32.81-4.39 19.81-6.705 40.4-6.705 61.53C572.444 758.563 599.693 824.688 644.508 874.758zM383.769 497.404c104.202 0 188.674-84.472 188.674-188.677 0-104.202-84.472-188.675-188.674-188.675-104.205 0-188.677 84.472-188.677 188.675C195.092 412.931 279.564 497.404 383.769 497.404zM973.388 687.148c0.83-6.59 1.65-13.19 1.65-20.195s-0.41-13.6-1.65-20.195l43.69-34.21c3.71-3.295 4.95-8.65 2.475-13.185l-41.215-71.305c-2.47-4.53-7.83-6.18-12.78-4.53l-51.105 20.61c-10.715-8.245-22.255-15.25-35.035-20.2l-7.83-54.402c-0.41-4.945-4.94-8.655-9.89-8.655l-82.43 0c-4.945 0-9.48 3.71-10.3 8.655l-7.835 54.402c-12.365 5.36-24.315 11.955-35.035 20.2l-51.105-20.61c-4.535-1.65-9.89 0-12.775 4.53l-41.215 71.305c-2.475 4.535-1.65 9.89 2.475 13.185l43.685 34.21c-0.825 6.595-1.235 13.19-1.235 20.195s0.41 13.605 1.235 20.195l-43.685 34.21c-3.71 3.295-4.95 8.655-2.475 13.19l41.215 71.3c2.47 4.53 7.83 6.18 12.775 4.53l51.105-20.605c10.72 8.245 22.26 15.25 35.035 20.195l7.835 54.405c0.82 4.945 4.94 8.655 10.3 8.655l82.43 0c4.95 0 9.48-3.71 10.305-8.655l7.83-54.405c12.365-5.36 24.315-11.95 34.62-20.195l51.52 20.605c4.535 1.65 9.89 0 12.775-4.53l41.215-71.3c2.475-4.535 1.235-9.895-2.475-13.19L973.388 687.148zM820.483 728.778c-34.205 0-61.82-27.615-61.82-61.825 0-34.205 27.615-61.82 61.82-61.82 34.21 0 61.825 27.615 61.825 61.82C882.308 701.163 854.693 728.778 820.483 728.778L820.483 728.778z" p-id="4164"></path></svg>