<?xml version="1.0" standalone="no"?><!DOCTYPE svg PUBLIC "-//W3C//DTD SVG 1.1//EN" "http://www.w3.org/Graphics/SVG/1.1/DTD/svg11.dtd"><svg t="1548293122915" class="icon" style="" viewBox="0 0 1024 1024" version="1.1" xmlns="http://www.w3.org/2000/svg" p-id="14724" xmlns:xlink="http://www.w3.org/1999/xlink" width="200" height="200"><defs><style type="text/css"></style></defs><path d="M896 832H624L768 1024H256l144-192H128a128 128 0 0 1-128-128V128a128 128 0 0 1 128-128h768a128 128 0 0 1 128 128v576a128 128 0 0 1-128 128z m-512 128h256l-96-128h-64L384 960z m576-832a64 64 0 0 0-64-64H128a64 64 0 0 0-64 64v576a64 64 0 0 0 64 64h768a64 64 0 0 0 64-64V128z m-192 448a64 64 0 1 1-64 64c0-1.344 0.64-2.432 0.768-3.712L582.464 554.752a127.36 127.36 0 0 1-140.928 0L319.232 636.288c0.128 1.28 0.768 2.368 0.768 3.712a64 64 0 1 1-64-64c10.112 0 19.328 2.816 27.84 6.976L398.72 506.368A126.272 126.272 0 0 1 384 448c0-23.68 6.848-45.632 18.112-64.64L271.616 252.864C266.496 254.144 261.504 256 256 256a64 64 0 1 1 64-64c0 5.504-1.856 10.496-3.136 15.616L447.36 338.112a126.336 126.336 0 0 1 135.104 3.136l122.304-81.536C704.64 258.432 704 257.344 704 256a64 64 0 1 1 64 64 62.912 62.912 0 0 1-27.84-6.976L625.28 389.632c9.088 17.536 14.72 37.184 14.72 58.368 0 21.184-5.632 40.832-14.72 58.368l114.88 76.608A62.912 62.912 0 0 1 768 576zM512 384a64 64 0 1 0 0 128 64 64 0 0 0 0-128z" p-id="14725"></path></svg>