<?xml version="1.0" standalone="no"?><!DOCTYPE svg PUBLIC "-//W3C//DTD SVG 1.1//EN" "http://www.w3.org/Graphics/SVG/1.1/DTD/svg11.dtd"><svg t="1583822566088" class="icon" viewBox="0 0 1024 1024" version="1.1" xmlns="http://www.w3.org/2000/svg" p-id="2121" xmlns:xlink="http://www.w3.org/1999/xlink" width="200" height="200"><defs><style type="text/css"></style></defs><path d="M31.846 690.086C104.188 885.054 291.858 1024 512 1024s407.812-138.946 480.154-333.914L512 645.566l-480.154 44.52z" fill="#FFDA44" p-id="2122"></path><path d="M512 0C291.858 0 104.188 138.944 31.846 333.914L512 378.434l480.154-44.522C919.812 138.944 732.142 0 512 0z" fill="" p-id="2123"></path><path d="M31.846 333.914C11.266 389.38 0 449.372 0 512s11.266 122.62 31.846 178.086h960.31C1012.736 634.62 1024 574.628 1024 512s-11.264-122.62-31.846-178.086H31.846z" fill="#D80027" p-id="2124"></path></svg>