<?xml version="1.0" standalone="no"?><!DOCTYPE svg PUBLIC "-//W3C//DTD SVG 1.1//EN" "http://www.w3.org/Graphics/SVG/1.1/DTD/svg11.dtd"><svg t="1583930016737" class="icon" viewBox="0 0 1532 1024" version="1.1" xmlns="http://www.w3.org/2000/svg" p-id="1372" xmlns:xlink="http://www.w3.org/1999/xlink" width="299.21875" height="200"><defs><style type="text/css"></style></defs><path d="M0 1024V0h1532.913v1024z m1529.775-3.12zM6.378 1017.672h1520.225V6.26H6.378z" fill="#231F20" p-id="1373"></path><path d="M3.206 681.615H1529.74v339.213H3.206z" fill="#DA0000" p-id="1374"></path><path d="M3.206 342.351H1529.74v339.264H3.206z" fill="#FFFFFF" p-id="1375"></path><path d="M3.206 3.172H1529.74v339.196H3.206z" fill="#239F40" p-id="1376"></path><path d="M3.206 321.42h7.039v-13.925h20.88v13.909h34.838v-20.897H45.05v6.988h13.976v6.971h-20.93V300.49H3.206z m14.027 0h6.92v-6.937h-6.92zM3.206 293.537h90.676v-6.971H3.206z m90.676 27.885H72.9v-20.914h27.952v-13.942h6.954v27.884h6.972v-27.918h6.954v27.918h6.937v-27.918h7.005v34.89h-34.822v-13.926H79.906v6.971h13.976z m48.747 0h6.971v-13.926h20.965v13.942h34.805v-20.964h-20.863v7.022H198.4v6.971h-20.88V300.49h-34.89z m13.977 0h6.937v-6.972h-6.937z m-13.977-27.92h90.693v-6.97H142.63z m90.693 27.92H212.29v-20.948h27.953v-13.942h6.92v27.918h7.005v-27.918h6.988v27.918h6.955v-27.918h6.937v34.89h-34.805v-13.926h-20.88v6.971h13.96z m48.697 0h6.971v-13.926h20.948v13.942h34.839v-20.964h-20.914v7.022h13.942v6.971h-20.913V300.49h-34.873z m14.01 0H303v-6.972h-6.92z m-14.01-27.92h90.676v-6.97H282.02z m90.676 27.92h-20.947v-20.948h27.918v-13.942h6.972v27.918h6.92v-27.918h6.971v27.918h6.971v-27.918h7.005v34.89h-34.839v-13.926h-20.981v6.971h14.01z m48.748 0h6.937v-13.926h20.981v13.942h34.771v-20.964h-20.845v7.022h13.908v6.971h-20.863V300.49h-34.89z m13.976 0h6.971v-6.972h-6.971z m-13.976-27.92h90.625v-6.97h-90.625z m90.625 27.92h-20.93v-20.948h27.918v-13.942h6.971v27.918h7.005v-27.918h6.92v27.918h6.972v-27.918h6.97v34.839h-34.838v-13.875h-20.914v6.971h13.926z m48.764-0.051h6.954v-13.875h20.982v13.926h34.822v-20.999h-20.914v7.073h13.976v6.954h-20.947v-13.976h-34.873z m14.01 0h6.972v-6.972h-6.972z m-14.01-27.868h90.71v-6.971h-90.71z m90.71 27.868h-20.981v-20.948h27.902v-13.891h6.97v27.867h6.972v-27.867h7.005v27.867h6.971v-27.867h6.971v34.839h-34.89v-13.875h-20.93v6.954h14.01z m48.748 0h6.937v-13.875h20.93v13.926h34.822v-20.999h-20.811v7.073h13.942v6.954h-20.947v-13.976H700.29z m13.891 0h7.005v-6.972h-7.005z m-13.891-27.868h90.642v-6.971H700.29z m90.642 27.868h-20.981v-20.948h27.901v-13.891h6.971v27.867h6.972v-27.867h7.005v27.867h6.937v-27.867h6.971v34.839h-34.856v-13.875h-20.947v6.954h14.027z m48.73 0h6.938v-13.875h20.981v13.926h34.856v-20.999h-20.948v7.073h13.977v6.954h-20.914v-13.976h-34.89z m13.909 0h7.056v-6.972h-7.056z m-13.909-27.868h90.677v-6.971h-90.677z m90.677 27.868h-20.982v-20.948h27.953v-13.891h6.937v27.867h6.971v-27.867h6.971v27.867h6.938v-27.867h6.954v34.839H937.31v-13.875h-20.982v6.954h14.01z m48.764 0h6.954v-13.875h20.914v13.942h34.856v-21.015h-20.88v6.971h13.908v6.972h-20.88v-13.943h-34.872z m13.891 0h6.989v-6.972h-6.972z m-13.891-27.834h90.625v-6.971h-90.625z m90.625 27.834h-20.862v-20.948h27.833v-13.925h6.938v27.868h6.97v-27.868h7.006v27.868h6.971v-27.868h6.937v34.839H1076.7v-13.943h-20.981v6.972h14.01z m48.748-0.034h7.022v-13.943h20.947v13.943h34.839v-20.914h-20.947v6.971h13.891v6.972h-20.863v-13.943h-34.89z m13.908 0h6.971v-6.971h-6.971z m-13.908-27.868h90.608v-6.971h-90.608z m90.608 27.868h-20.829v-20.914h27.885v-13.925h6.971v27.868h6.937v-27.868h6.972v27.868h6.954v-27.868h6.937v34.839h-34.771v-13.943h-20.93v6.972h13.874z m48.713 0h7.04v-13.943h20.947v13.943h34.771v-20.914h-20.863v6.971h13.892v6.972h-20.829v-13.943h-34.958z m13.977 0h6.937v-6.971h-6.937z m-13.977-27.868h90.643v-6.971h-90.643z m90.643 27.868h-20.846v-20.914h27.919v-13.925h6.97v27.868h6.938v-27.868h7.005v27.868h6.971v-27.868h6.955v34.839h-34.84v-13.943h-20.879v6.972h13.875z m48.849 0h7.005v-13.943h20.947v13.943h34.805v-20.948h-20.913v6.971h13.908v6.92h-20.862v-13.976h-34.89z m13.976 0h6.886v-6.971h-6.886z m-13.976-27.868h90.608v-6.954h-90.608z m90.608 27.834h-20.88v-20.914h27.834v-13.925h7.056v27.817h6.92v-27.817h6.921v27.817h6.971v-27.817h6.971v34.839h-34.839v-13.943h-20.828v6.92h13.874zM3.206 342.35h62.757v-13.925H3.206z m69.695 0h62.757v-13.942H72.901z m69.728-0.034h62.758v-13.942h-62.758z m69.661 0h62.758v-13.942H212.29z m69.729 0h62.758v-13.942h-62.758z m69.729 0h62.757v-13.942h-62.757z m69.695 0H484.2v-13.942h-62.757z m69.694 0h62.758v-13.942h-62.758z m69.695-0.034h62.758v-13.942h-62.758z m69.729 0h62.757v-13.942h-62.757z m69.729 0h62.757v-13.942H700.29z m69.66 0h62.758v-13.942h-62.757z m69.712 0h62.758v-13.942h-62.758z m69.695 0h62.758v-13.942h-62.758z m69.746 0h62.757v-13.908h-62.757z m69.763 0h62.655v-13.908h-62.655z m69.61-0.034h62.757v-13.908h-62.757z m69.762 0h62.656v-13.908h-62.639z m69.56 0h62.757v-13.908h-62.758z m69.728 0h62.758v-13.908h-62.758z m69.763 0h62.757v-13.942h-62.757z m69.729 0h62.757v-13.942h-62.757zM3.206 737.368h6.937v-13.943h20.981v13.943h34.84V716.47H45.05v6.954h13.976v6.971h-20.93v-13.925H3.206z m13.942 0h6.971v-6.972h-6.97zM3.206 709.483H93.78v-6.971H3.206z m90.574 27.885H72.9V716.47h27.953v-13.96h6.954v27.885h6.972v-27.884h6.954v27.884h6.937v-27.884h7.005v34.856h-34.822v-13.943H79.872v6.971H93.78z m48.85 0h6.97v-13.943h20.965v13.943h34.805V716.47h-20.863v6.954H198.4v6.971h-20.88v-13.925h-34.89z m13.89 0h6.989v-6.972h-6.988z m-13.89-27.885h90.692v-6.971H142.63z m90.692 27.885H212.29V716.47h27.953v-13.96h6.92v27.885h7.005v-27.884h6.988v27.884h6.955v-27.884h6.937v34.856h-34.805v-13.943h-20.948v6.971h14.027z m48.697 0h6.971v-13.943h20.948v13.943h34.839V716.47h-20.914v6.954h13.942v6.971h-20.913v-13.925h-34.873z m13.891 0h6.955v-6.972h-6.955z m-13.891-27.885h90.591v-6.971H282.02z m90.591 27.885h-20.862V716.47h27.918v-13.96h6.972v27.885h6.92v-27.884h6.971v27.884h6.971v-27.884h7.005v34.856h-34.839v-13.943h-20.981v6.971h13.925z m48.833 0h6.937v-13.943h20.981v13.943h34.771V716.47h-20.845v6.954h13.908v6.971h-20.863v-13.925h-34.89z m13.942 0h6.92v-6.972h-6.92z m-13.942-27.885h90.608v-6.971h-90.608z m90.608 27.885h-20.914V716.47h27.919v-13.96h6.971v27.885h7.005v-27.884h6.92v27.884h6.972v-27.884h6.97v34.856h-34.838v-13.943h-20.914v6.971h13.909z m48.781 0h6.954v-13.943h20.982v13.943h34.822V716.47h-20.914v6.954h13.976v6.971h-20.947v-13.925h-34.873z m14.01 0h6.92v-6.972h-6.92z m-14.01-27.885h90.592v-6.971h-90.592z m90.592 27.885H630.56V716.47h27.902v-13.96h6.97v27.885h6.972v-27.884h7.005v27.884h6.971v-27.884h6.971v34.856h-34.89v-13.943h-20.93v6.971h13.892z m48.866 0h6.937v-13.943h20.93v13.943h34.822V716.47h-20.811v6.954h13.942v6.971h-20.947v-13.925H700.29z m13.942 0h6.92v-6.972h-6.92z m-13.942-27.885h90.557v-6.971H700.29z m90.557 27.885h-20.896V716.47h27.901v-13.96h6.971v27.885h6.972v-27.884h7.005v27.884h6.937v-27.884h6.971v34.856h-34.856v-13.943h-20.947v6.971h13.942z m48.815 0h6.938v-13.943h20.981v13.943h34.856V716.47h-20.948v6.954h13.977v6.971h-20.914v-13.925h-34.89z m14.028 0h6.886v-6.972h-6.886z m-14.028-27.885h90.643v-6.971h-90.643z m90.643 27.885h-20.948V716.47h27.953v-13.96h6.937v27.885h6.971v-27.884h6.971v27.884h6.938v-27.884h6.954v34.856H937.31v-13.943h-20.982v6.971h13.977z m48.798 0h6.954v-13.943h20.914v13.943h34.856V716.47h-20.88v6.954h13.908v6.971h-20.88v-13.925h-34.872z m13.96 0h6.92v-6.972h-6.938z m-13.96-27.885h90.625v-6.971h-90.625z m90.625 27.885h-20.981V716.47h27.952v-13.96h6.938v27.885h6.97v-27.884h7.006v27.884h6.971v-27.884h6.937v34.856H1076.7v-13.943h-20.981v6.971h14.01z m48.748 0h7.022v-13.943h20.947v13.943h34.839V716.47h-20.947v6.954h13.891v6.971h-20.863v-13.925h-34.89z m14.027 0h6.954v-6.972h-6.954z m-14.027-27.885h90.642v-6.971h-90.642z m90.642 27.885h-20.863V716.47h27.919v-13.96h6.971v27.885h6.937v-27.884h6.971v27.884h6.955v-27.884h6.937v34.856h-34.771v-13.943h-21.032v6.971h13.976z m48.68 0h7.004v-13.943h20.982v13.943h34.771V716.47h-20.863v6.954h13.892v6.971h-20.829v-13.925h-34.958z m14.01 0h6.97v-6.972h-6.903z m-14.01-27.885h90.743v-6.971h-90.744z m90.676 27.885h-20.88V716.47h27.919v-13.96h6.97v27.885h6.938v-27.884h6.954v27.884h7.022v-27.884h6.955v34.856h-34.84v-13.943h-20.98v6.971h14.01z m48.815 0h6.971v-13.943h20.981v13.943h34.805V716.47h-20.913v6.954h13.908v6.971h-20.862v-13.925h-34.89z m13.976 0h7.005v-6.972h-7.005z m-13.976-27.885h90.642v-6.971h-90.642z m90.642 27.885h-20.913V716.47h27.918v-13.96h6.971v27.885h6.92v-27.884h6.921v27.884h6.971v-27.884h6.971v34.856h-34.754v-13.943h-20.947v6.971h13.942zM3.206 695.558h62.757v-13.943H3.206z m69.695 0h62.757v-13.943H72.901z m69.728 0h62.758v-13.943h-62.758z m69.661 0h62.758v-13.943H212.29z m69.729 0h62.758v-13.943h-62.758z m69.729 0h62.757v-13.943h-62.757z m69.695 0H484.2v-13.943h-62.757z m69.694 0h62.758v-13.943h-62.758z m69.695 0h62.758v-13.943h-62.758z m69.729 0h62.757v-13.943h-62.757z m69.729 0h62.757v-13.943H700.29z m69.66 0h62.758v-13.943h-62.757z m69.712 0h62.758v-13.943h-62.758z m69.695 0h62.758v-13.943h-62.758z m69.746 0h62.757v-13.943h-62.757z m69.644 0h62.757v-13.943h-62.757z m69.729 0h62.757v-13.943h-62.757z m69.728 0h62.758v-13.943h-62.707z m69.593 0h62.758v-13.943h-62.758z m69.73 0h62.757v-13.943h-62.758z m69.762 0h62.757v-13.943h-62.757z m69.729 0h62.757v-13.943h-62.757z" fill="#FFFFFF" p-id="1377"></path><path d="M803.33 363.468l0.56 2.867a22.05 22.05 0 0 1-8.48 20.082l-16.334 4.19-12.603-6.327-12.602 6.327-15.791-3.834a21.914 21.914 0 0 1-8.48-23.288l3.73 4.698 16.097 7.226 17.097-5.004 8.023 4.037 18.658-1.696z" fill="#DA0000" p-id="1378"></path><path d="M748.036 403.667l18.437-14.943 18.489 14.977c-0.408 19.862-0.56 39.605-0.9 59.484 0 8.48-0.288 16.961-0.407 25.442-0.254 22.813-0.712 45.542-0.932 68.321-0.22 8.905-0.153 17.843-0.407 26.647-0.12 7.106-0.12 14.078-0.289 21.167l5.614-4.393a148.718 148.718 0 0 0 27.732-30.378 151.415 151.415 0 0 0 24.493-62.13 150.788 150.788 0 0 0-27.257-110.91 136.472 136.472 0 0 1 34.55 40.707 138.983 138.983 0 0 1-20.608 163.119 140.78 140.78 0 0 1-33.923 26.171 152.823 152.823 0 0 0 66.15 7.107 147.124 147.124 0 0 1-26.477 7.582 138.983 138.983 0 0 1-50.732 0l-0.593 2.205-14.469 16.69h-0.101L751.75 643.57l-0.34-1.9-5.207 0.866a139.22 139.22 0 0 1-71.967-8.481 163.882 163.882 0 0 0 30.378 0.407 153.824 153.824 0 0 0 35.619-7.514l-8.82-5.343a139.084 139.084 0 0 1-45.22-184.626 140.441 140.441 0 0 1 34.212-40.215l-3.732 5.444a149.261 149.261 0 0 0-9.311 150.16 148.006 148.006 0 0 0 43.523 52.36l-0.238-17.894c-0.339-7.785-0.152-15.57-0.44-23.356q-0.459-34.449-0.95-68.914c0-8.583-0.357-17.115-0.357-25.68q-0.44-32.634-0.865-65.217z" fill="#DA0000" p-id="1379"></path><path d="M650.202 422.833a118.205 118.205 0 0 1 52.835-30.53l-4.511 3.392a149.72 149.72 0 0 0-37.774 191.14 160.608 160.608 0 0 0 16.962 24.017l-9.176-5.343a119.155 119.155 0 0 1-52.92-95.714v-6.48a115.983 115.983 0 0 1 4.444-28.834 118.9 118.9 0 0 1 30.14-51.648z m179.52-30.53l5.666 1.611a119.087 119.087 0 0 1 82.026 109.928v5.682l-1.425 15.384a118.527 118.527 0 0 1-60.807 86.13 150.449 150.449 0 0 0 36.111-105.093 152.145 152.145 0 0 0-17.3-62.91 149.261 149.261 0 0 0-44.27-50.732z" fill="#DA0000" p-id="1380"></path></svg>