<?xml version="1.0" standalone="no"?><!DOCTYPE svg PUBLIC "-//W3C//DTD SVG 1.1//EN" "http://www.w3.org/Graphics/SVG/1.1/DTD/svg11.dtd"><svg t="1583822599384" class="icon" viewBox="0 0 1024 1024" version="1.1" xmlns="http://www.w3.org/2000/svg" p-id="2741" xmlns:xlink="http://www.w3.org/1999/xlink" width="200" height="200"><defs><style type="text/css"></style></defs><path d="M0 512a512 512 0 1 0 1024 0A512 512 0 1 0 0 512z" fill="#D42D1F" p-id="2742"></path><path d="M108.8 192C44.8 281.6 0 390.4 0 512s44.8 236.8 115.2 320h793.6c70.4-89.6 115.2-198.4 115.2-320s-44.8-230.4-108.8-320H108.8z" fill="#FFFFFF" p-id="2743"></path><path d="M32 339.2C12.8 390.4 0 448 0 512c0 64 12.8 121.6 32 179.2h960c19.2-57.6 32-115.2 32-179.2 0-64-12.8-121.6-32-172.8H32z" fill="#012094" p-id="2744"></path></svg>