<?xml version="1.0" standalone="no"?><!DOCTYPE svg PUBLIC "-//W3C//DTD SVG 1.1//EN" "http://www.w3.org/Graphics/SVG/1.1/DTD/svg11.dtd"><svg t="1583822480263" class="icon" viewBox="0 0 1024 1024" version="1.1" xmlns="http://www.w3.org/2000/svg" p-id="1879" xmlns:xlink="http://www.w3.org/1999/xlink" width="200" height="200"><defs><style type="text/css"></style></defs><path d="M76.91377778 769.82044445c-6.03022222-4.096-7.73688889-11.15022222-11.03644445-16.9528889-17.29422222-30.60622222-30.26488889-63.14666667-40.39111111-96.82488888-16.27022222-53.81688889-22.528-108.88533333-20.59377777-164.97777778 2.61688889-72.36266667 20.36622222-140.97066667 52.33777777-205.824 8.30577778-16.95288889 17.63555555-33.33688889 28.21688889-48.92444444 4.20977778-2.73066667 8.98844445-1.93422222 13.65333334-1.93422223h825.7991111c4.43733333 0 8.87466667-0.68266667 12.97066667 1.82044445 15.70133333 22.30044445 27.98933333 46.53511111 38.912 71.56622222 34.816 79.64444445 48.128 162.816 40.39111111 249.40088889-3.64088889 40.96-11.83288889 81.00977778-25.48622222 119.808-10.69511111 30.37866667-23.66577778 59.73333333-40.16355556 87.38133333-1.25155555 2.048-2.048 4.55111111-4.66488888 5.46133334" fill="#FDC200" p-id="1880"></path><path d="M941.28355555 770.27555555c2.16177778 0 4.43733333-0.22755555 6.59911112-0.22755555-0.45511111 7.05422222-5.68888889 11.83288889-9.216 17.18044445C892.24533333 858.45333333 831.94311111 914.77333333 757.53244445 955.73333333c-51.99644445 28.672-107.29244445 47.55911111-166.11555556 56.54755556-66.56 10.24-132.66488889 7.85066667-197.97333334-7.85066667-66.56-15.92888889-127.43111111-44.60088889-182.49955555-85.56088889-49.49333333-36.75022222-90.90844445-81.12355555-124.58666667-132.77866666-3.29955555-5.00622222-7.62311111-9.67111111-8.30577778-16.04266667l863.232 0.22755555z m-852.19555555-537.71377777c27.07911111-41.64266667 59.96088889-78.16533333 97.96266667-110.13688889 38.22933333-32.08533333 80.21333333-58.02666667 126.06577778-77.59644444 39.70844445-16.95288889 80.78222222-28.78577778 123.56266666-35.04355556 40.39111111-5.91644445 81.23733333-7.168 121.856-3.64088889 58.70933333 5.12 114.91555555 20.13866667 168.27733334 44.94222222 60.75733333 28.33066667 113.89155555 67.12888889 159.1751111 116.50844445 18.88711111 20.59377778 36.63644445 42.21155555 51.31377778 66.10488888-3.52711111 2.38933333-7.62311111 1.36533333-11.49155555 1.36533334-238.02311111 0.11377778-476.16 0-714.18311111 0-38.11555555 0-76.11733333 0-114.23288889-0.11377778-2.84444445 0.22755555-6.71288889 1.93422222-8.30577778-2.38933333z m0 0" fill="#C40B1E" p-id="1881"></path><path d="M496.07111111 585.15911111c-1.70666667-10.92266667 0.45511111-21.73155555 1.13777778-32.54044444 0.11377778-0.79644445 0.22755555-1.59288889 0.45511111-2.38933334 2.16177778-4.096 5.68888889-7.28177778 8.41955555-11.03644444 7.50933333-5.46133333 15.36-10.12622222 25.1448889-9.67111111 1.70666667 0.11377778 3.18577778-0.91022222 4.77866666-1.47911111 16.27022222 4.32355555 25.94133333 14.79111111 29.12711111 31.28888888 0.56888889 3.072 0.91022222 6.48533333 4.55111111 7.85066667 16.83911111 1.47911111 33.792 0.45511111 50.63111112 0.56888889 18.88711111 0.11377778 15.70133333 1.36533333 15.8151111 15.47377778 0.11377778 13.76711111-0.56888889 27.42044445 0.22755556 41.18755556 1.024 18.65955555-2.048 35.95377778-13.42577778 51.2-0.34133333 0.34133333-0.79644445 0.45511111-1.25155555 0.4551111-7.62311111 4.66488889-15.01866667 9.55733333-23.66577778 12.06044445l0.11377778-0.11377778c-6.94044445 3.64088889-14.44977778 1.59288889-21.73155556 1.93422223-2.95822222 0.11377778-5.91644445 0-8.76088889 0-9.55733333 0.68266667-15.81511111-5.68888889-22.75555555-10.69511112-0.91022222-0.68266667-1.59288889-1.47911111-2.38933333-2.27555555-2.38933333-3.52711111-5.23377778-6.48533333-7.85066667-9.78488889-2.95822222-4.55111111-20.93511111 11.83288889-23.66577778 7.168-2.048-9.67111111-1.25155555-25.6-1.93422222-35.38488889-0.22755555-2.95822222-1.024-38.34311111-1.47911111-41.18755555" fill="#AA1619" p-id="1882"></path><path d="M566.84088889 568.66133333c-3.072-1.36533333-2.27555555-4.32355555-2.95822222-6.82666666-2.95822222-13.08444445-7.50933333-24.91733333-22.30044445-28.672-2.16177778-0.56888889-2.61688889-4.55111111-5.80266667-2.61688889-4.89244445-0.22755555-7.73688889-2.16177778-7.73688888-7.50933333 0-21.504-0.22755555-43.008 0.11377778-64.512 0-1.25155555 0.34133333-2.38933333 0.79644444-3.52711112 2.38933333-4.20977778 6.37155555-4.89244445 10.69511111-5.00622222 29.58222222-0.79644445 59.27822222 1.25155555 88.86044445 0.56888889 6.48533333-0.11377778 7.39555555 3.64088889 7.73688888 8.98844445 0.91022222 19.56977778 0.34133333 39.13955555 0.79644445 58.70933333 2.73066667 9.216 2.048 18.31822222-0.79644445 27.30666667v-0.11377778c1.93422222 6.59911111-0.68266667 13.08444445-0.22755555 19.56977778 0.22755555 3.072-1.82044445 4.096-4.77866667 3.98222222-21.504-0.22755555-43.008 0.79644445-64.39822222-0.34133334z m0 0" fill="#DADADA" p-id="1883"></path><path d="M595.74044445 434.176c-2.50311111 2.27555555 3.52711111 6.82666667 4.20977777 9.216 2.50311111 8.53333333-11.15022222 4.66488889-15.47377777 6.37155555-1.25155555 0.45511111 25.71377778-1.024 24.46222222 0.22755556 13.76711111 0 3.41333333-0.79644445 17.18044444-0.79644444 11.37777778 0 11.37777778 0 11.37777778 11.71911111l0.34133333 57.344c-0.56888889 0.56888889-1.13777778 0.56888889-1.70666667 0-0.34133333-19.56977778-1.024-39.13955555-1.024-58.70933333 0-5.91644445-2.048-7.62311111-7.6231111-7.62311112-29.58222222 0.11377778-150.86933333 0.22755555-170.09777778 0-14.336-5.68888889 1.82044445-21.61777778-1.82044445-17.74933333h140.17422223z m0 0" fill="#9F8604" p-id="1884"></path><path d="M520.41955555 335.18933333c1.59288889-0.45511111 3.18577778-0.45511111 4.89244445-0.34133333 4.77866667-0.34133333 9.10222222 1.82044445 13.65333333 2.84444445 5.57511111-1.93422222 11.15022222-3.29955555 17.06666667-3.98222223 11.60533333-1.47911111 19.56977778 5.91644445 28.78577778 10.58133333 1.13777778 0.56888889 1.024 2.61688889 3.29955555 2.048 12.51555555-3.18577778 24.46222222-1.47911111 35.84 4.43733334 11.15022222 5.80266667 17.86311111 17.408 16.95288889 27.19288889 0.11377778 12.62933333-24.12088889 45.39733333-45.056 56.32H455.56622222c-10.46755555-1.25155555-56.77511111-58.82311111-43.80444444-77.93777778" fill="#9F8604" p-id="1885"></path><path d="M410.73777778 357.48977778c10.46755555-22.64177778 51.2-12.51555555 54.38577777-12.288 4.32355555 0.34133333 8.30577778-6.144 11.15022223-9.55733333 0 0 11.37777778-7.62311111 18.31822222-3.072 7.96444445 3.41333333 17.86311111 6.37155555 25.82755555 2.61688888" fill="#9F8604" p-id="1886"></path><path d="M671.28888889 539.19288889c-1.70666667-0.68266667-2.73066667-3.29955555-5.00622222-2.38933334-7.39555555 3.072-15.36 1.93422222-23.09688889 3.41333334-3.75466667 0.68266667-5.57511111 2.50311111-7.05422223 5.34755556-0.79644445-9.10222222-0.91022222-18.20444445 0-27.42044445h1.70666667c10.12622222-0.56888889 20.25244445-1.25155555 30.37866667-1.82044445 1.13777778-0.56888889 2.16177778-1.13777778 3.52711111-1.36533333 3.29955555-0.34133333 6.59911111-0.22755555 9.78488889 0.34133333 7.62311111 2.38933333 15.92888889-0.68266667 23.43822222 2.84444445 5.34755555 5.57511111 13.19822222 6.59911111 19.34222222 10.80888889 5.12 3.41333333 7.168 6.94044445 4.77866667 12.85688889-0.91022222 2.048-1.36533333 4.20977778-1.93422222 6.25777777-2.95822222 10.24-9.216 16.27022222-20.36622223 16.04266667" fill="#AB2C17" p-id="1887"></path><path d="M705.99111111 582.656c2.048 0.79644445 4.20977778 1.47911111 6.144 2.27555555 17.74933333 7.62311111 15.58755555 11.94666667 11.60533334 28.10311112-1.25155555 5.00622222-7.85066667 5.68888889-8.98844445 11.03644444-0.11377778 0.68266667-2.16177778-0.45511111-2.73066667-1.59288889-1.59288889-3.072-3.072-6.48533333-0.91022222-9.78488889 3.29955555-5.23377778 0.79644445-7.85066667-3.86844444-9.78488888-0.68266667 0.34133333-1.36533333 0.45511111-2.048 0.4551111-4.32355555-1.47911111-8.64711111-2.95822222-13.08444445-4.32355555-5.80266667-2.38933333-11.49155555-5.00622222-17.408-7.28177778-3.86844445-0.68266667-4.43733333-5.12-7.50933333-6.82666667-1.47911111-0.91022222-2.95822222-1.70666667-4.32355556-2.73066666-8.76088889-6.59911111-11.264-17.86311111-5.46133333-26.96533334 1.47911111-2.27555555 4.096-4.32355555 7.28177778-4.43733333 2.61688889 0 4.77866667-0.91022222 6.59911111-2.73066667" fill="#AB1719" p-id="1888"></path><path d="M398.10844445 579.81155555c-4.55111111 2.16177778-24.80355555 16.27022222-29.58222223 17.9768889-4.20977778 2.16177778-8.87466667 3.18577778-13.08444444 5.23377777-1.59288889 0.79644445-3.29955555 0.34133333-5.00622223 0.22755556-4.32355555 2.27555555-3.86844445 5.80266667-2.5031111 9.44355555 1.25155555 3.41333333 1.93422222 7.05422222-1.70666667 9.216-3.86844445 2.38933333-11.60533333-13.312-13.99466667-15.13244444-8.07822222-6.25777778 6.48533333-21.73155555 15.70133334-26.51022222 11.94666667-8.41955555 37.66044445-29.58222222 40.50488888-31.63022222" fill="#AA1819" p-id="1889"></path><path d="M387.86844445 546.92977778c5.23377778 1.024 14.10844445 6.144 14.90488888 12.17422222 1.024 7.62311111 4.43733333 15.92888889-5.34755555 21.16266667" fill="#AA1819" p-id="1890"></path><path d="M422.79822222 535.552c-33.33688889-10.46755555-60.64355555 28.672-68.608 28.672-10.69511111-1.59288889-30.26488889-16.49777778-28.44444444-26.96533333 1.024-5.68888889 21.84533333-15.24622222 26.73777777-17.52177778 1.82044445-2.73066667 64.17066667-6.48533333 70.31466667-1.82044444" fill="#A9231A" p-id="1891"></path><path d="M398.90488889 672.88177778c-1.36533333 1.70666667-3.18577778 2.16177778-5.23377778 2.16177777-15.24622222 0.34133333-30.37866667 0.34133333-45.62488889 0-2.048-0.11377778-3.86844445-0.45511111-5.23377777-2.16177777 0.91022222-9.10222222 6.59911111-16.384 9.10222222-24.91733333 0.91022222-0.79644445 2.048-1.70666667 3.18577778-1.47911112 11.264 2.16177778 22.528-0.11377778 33.792 0 1.82044445 1.59288889 2.95822222 5.91644445 2.95822222 5.91644445" fill="#B9A303" p-id="1892"></path><path d="M434.40355555 673.10933333c2.27555555-2.27555555 1.25155555-5.12 1.25155556-7.62311111 0.11377778-27.42044445 0-54.84088889 0-82.14755555 0-1.93422222-0.11377778-3.98222222 0.11377778-5.91644445 0.34133333-2.95822222 1.024-6.25777778 4.20977778-7.05422222 3.98222222-1.024 2.27555555 3.41333333 4.096 4.77866667 0.56888889 0.45511111 1.36533333 0.45511111 2.048 0.68266666 2.16177778 2.16177778 1.93422222 5.00622222 1.93422222 7.62311112 0.11377778 29.696 0.11377778 59.392-0.11377778 89.088 0 3.64088889 1.70666667 10.12622222-6.37155556 7.96444444l-7.168-7.39555556z m0 0" fill="#A31518" p-id="1893"></path><path d="M544.99555555 677.31911111c7.05422222 2.95822222 11.15022222 11.49155555 20.13866667 10.58133334 5.12 2.16177778 10.69511111 1.13777778 15.81511111 2.61688888 2.38933333 0.68266667 6.25777778 1.47911111 1.70666667 4.77866667-8.30577778 0.56888889-15.81511111 4.32355555-23.89333333 5.80266667-24.576 5.12-48.81066667 3.52711111-72.81777778-3.072h0.11377778c-1.93422222-1.59288889-4.55111111-1.024-6.71288889-1.93422222-2.38933333-1.024-4.77866667-2.38933333-3.75466667-5.80266667 1.13777778-1.024 11.03644445-0.56888889 12.51555556-0.68266667 3.18577778-0.22755555 13.76711111-4.77866667 16.83911111-5.68888889 1.36533333-0.34133333 20.59377778-13.99466667 25.14488889-25.71377777" fill="#CECECB" p-id="1894"></path><path d="M705.08088889 602.56711111l2.16177778 0.22755556c0.11377778 16.61155555-1.82044445 33.22311111 1.13777778 49.72088888 0.56888889 2.84444445 1.70666667 4.89244445 3.18577777 7.168-0.68266667 4.096-4.20977778 3.64088889-6.94044444 3.75466667-11.264 0.34133333-22.528 0.45511111-33.792-0.11377777-2.95822222-0.11377778-7.39555555 0.45511111-6.59911111-5.12 4.89244445-3.98222222 3.75466667-10.12622222 3.98222222-14.9048889 0.79644445-18.09066667 0.34133333-36.29511111 0.34133333-54.49955555 0-1.36533333-0.91022222-2.73066667-1.36533333-4.096 3.64088889-0.11377778 4.096 4.20977778 7.05422222 5.00622222-0.68266667 15.13244445-0.34133333 30.37866667-0.34133333 45.51111111 0 8.30577778 0.68266667 8.76088889 8.64711111 8.98844445 3.64088889 0.11377778 7.28177778-0.11377778 11.03644444 0.11377777 9.55733333-0.56888889 9.67111111-0.56888889 9.67111112-10.12622222 0.11377778-7.73688889 0-15.47377778 0-23.32444444 0.11377778-2.84444445-0.22755555-5.80266667 1.82044444-8.30577778z m0 0" fill="#A8920A" p-id="1895"></path><path d="M425.52888889 570.02666667c6.94044445-1.36533333 8.76088889 1.70666667 8.64711111 8.41955555-0.34133333 25.37244445-0.22755555 50.85866667-0.11377778 76.23111111 0 5.46133333-0.22755555 10.58133333-2.73066667 15.47377778-4.77866667-2.50311111-5.46133333-7.62311111-7.168-11.94666666 0.56888889-0.79644445 1.13777778-1.70666667 0.91022223-2.73066667-4.66488889-26.39644445-0.45511111-52.90666667-1.82044445-79.41688889 0-2.27555555 0.56888889-4.32355555 2.27555556-6.03022222z m0 0" fill="#B8A100" p-id="1896"></path><path d="M354.53155555 451.81155555c0.68266667-6.37155555-6.94044445-7.85066667-7.96444444-13.19822222 3.41333333-2.16177778 7.85066667 0.34133333 11.15022222-2.38933333 9.78488889 1.13777778 8.41955555-6.82666667 10.12622222-12.288v-0.11377778c2.73066667-1.59288889 3.98222222 0 4.89244445 2.27555556 2.95822222 7.62311111 2.95822222 7.62311111 8.64711111 1.82044444l7.05422222 0.79644445c-1.70666667 4.20977778-2.61688889 7.96444445 3.64088889 9.10222222 0.91022222 0.11377778 1.47911111 1.13777778 0.91022223 2.27555556l-4.43733334 6.03022222c-4.77866667 7.39555555 2.84444445 5.68888889 5.68888889 7.62311111l0.11377778 2.61688889c-0.79644445 1.47911111-1.93422222 2.16177778-3.64088889 1.82044444-10.69511111-2.048-21.504-0.68266667-32.31288889-1.13777778-3.072-0.11377778-6.25777778 0-8.53333333-2.50311111 1.13777778-2.50311111 3.64088889-1.25155555 4.66488888-2.73066667z m0 0" fill="#6D5703" p-id="1897"></path><path d="M686.30755555 574.35022222c-13.88088889-5.00622222-13.88088889-5.00622222-14.56355555-19.00088889-0.11377778-2.38933333-0.34133333-4.77866667-0.45511111-7.28177778 0-2.95822222 0.11377778-5.91644445 0.11377778-8.98844444 1.70666667-2.048 3.29955555-4.096 6.144-1.59288889 3.18577778 1.36533333 6.25777778 2.38933333 9.78488888 2.16177778 5.00622222-0.22755555 7.85066667 2.50311111 8.30577778 7.28177778 0.68266667 7.50933333 0.68266667 15.13244445 0 22.64177777-0.56888889 6.48533333-4.43733333 6.71288889-9.32977778 4.77866667z m0 0" fill="#D9D8D8" p-id="1898"></path><path d="M671.63022222 516.43733333l-3.41333333-0.11377778c0.56888889-10.35377778 1.93422222-20.82133333 1.47911111-31.1751111-0.22755555-6.144 0-12.97066667-4.096-18.432 0.56888889-3.75466667 3.75466667-3.52711111 6.25777778-3.6408889 10.24-0.45511111 20.48-0.45511111 30.72 0.11377778 2.73066667 0.11377778 7.05422222-0.22755555 5.80266667 5.00622222-3.18577778 2.16177778-0.34133333 4.43733333-0.34133334 6.7128889 0 2.73066667-0.56888889 5.68888889-2.38933333 8.07822222-7.50933333-0.91022222-14.90488889-1.25155555-22.41422223-0.79644445-8.87466667 0.56888889-9.32977778 0.91022222-9.44355555 9.89866667-0.11377778 5.57511111 0.11377778 11.264-0.11377778 16.83911111 0 2.61688889 0.11377778 5.46133333-2.048 7.50933333z m0 0" fill="#A38F09" p-id="1899"></path><path d="M708.49422222 468.19555555c-0.11377778-2.048-1.25155555-2.95822222-3.29955555-2.95822222-12.288 0-24.68977778 0-36.97777778 0.11377778-0.79644445 0-1.59288889 0.91022222-2.38933334 1.36533334-4.66488889-2.16177778-5.23377778-6.25777778-3.98222222-10.35377778 1.47911111-5.23377778 6.25777778-4.32355555 10.24-4.43733334 4.55111111-2.27555555 8.87466667 0.68266667 13.53955556 0.22755556 6.94044445-0.68266667 13.76711111-1.024 19.91111111-4.77866667 0.34133333 1.59288889 0 3.29955555 1.93422222 4.32355556 7.39555555 4.32355555 7.73688889 10.58133333 1.024 16.49777777z m0 0" fill="#C1A900" p-id="1900"></path><path d="M664.23466667 658.31822222c0.22755555 1.93422222 1.36533333 2.95822222 3.41333333 2.95822223 13.76711111 0 27.648 0 41.41511111-0.11377778 0.79644445 0 1.59288889-0.91022222 2.38933334-1.36533334 2.50311111 4.096 0.68266667 9.55733333 4.43733333 13.312-1.36533333 1.59288889-3.29955555 2.048-5.34755556 2.16177778-14.67733333 0.34133333-29.46844445 0.45511111-44.14577777-0.11377778-2.048-0.11377778-3.98222222-0.45511111-5.23377778-2.16177778 1.25155555-4.89244445-2.38933333-10.80888889 3.072-14.67733333z m0 0" fill="#C1AB01" p-id="1901"></path><path d="M392.192 462.73422222c-2.048 5.80266667-0.91022222 17.74933333-3.64088889 23.43822223-5.34755555-4.096-11.60533333-4.096-17.97688889-4.20977778-5.80266667-0.11377778-11.83288889 1.70666667-17.18044444-1.70666667-4.32355555-3.072-1.13777778-13.76711111-3.41333333-17.408" fill="#A48F08" p-id="1902"></path><path d="M352.59733333 519.73688889l0.68266667-39.59466667c10.01244445-0.11377778 19.91111111-0.11377778 29.92355555-0.45511111 5.12-0.22755555 3.64088889 4.20977778 5.34755556 6.37155556 0 3.29955555-0.11377778 6.71288889-0.11377778 10.01244444-1.25155555 4.43733333-0.68266667 8.98844445-0.22755555 13.53955556 0.22755555 2.38933333 0.79644445 4.77866667-0.91022223 6.94044444l-34.70222222 3.18577778z m0 0" fill="#B7B2AB" p-id="1903"></path><path d="M391.62311111 468.19555555c-0.34133333-2.50311111-1.93422222-3.072-4.20977778-3.072h-33.10933333c-2.27555555 0-3.86844445 0.56888889-4.20977778 3.072-4.77866667-2.73066667-7.168-6.71288889-5.46133333-12.17422222 1.47911111-4.77866667 5.91644445-4.20977778 9.78488889-4.32355555l-3.072 2.61688889c14.56355555 1.36533333 28.89955555-1.024 43.008 1.82044444 2.27555555 4.89244445 0.91022222 8.76088889-2.73066667 12.06044444z m0 0" fill="#BDA600" p-id="1904"></path><path d="M686.30755555 574.35022222c5.57511111 0.79644445 7.96444445-1.25155555 7.50933334-7.28177777-0.45511111-6.03022222-0.22755555-12.17422222-0.11377778-18.31822223 0.11377778-5.80266667-2.16177778-8.76088889-8.192-8.41955555-2.95822222 0.11377778-5.91644445-0.22755555-7.96444444-2.73066667l20.82133333 2.16177778c0.91022222-0.45511111 1.82044445-0.22755555 2.61688889 0.34133333 7.85066667 6.59911111 3.64088889 16.04266667 5.91644444 24.00711111-1.59288889 6.03022222-1.25155555 12.288-0.91022222 18.432-7.28177778-1.024-13.08444445-5.57511111-19.68355556-8.192z m0 0" fill="#BEB7B1" p-id="1905"></path><path d="M683.46311111 480.14222222c5.57511111 0 11.264 0 16.83911111-0.22755555 2.50311111-0.11377778 4.32355555 0.68266667 5.34755556 2.95822222l-0.56888889 35.15733333c-7.85066667 1.13777778-15.70133333 0.45511111-23.32444444-1.25155555 9.67111111-2.50311111 10.92266667-9.55733333 10.01244444-17.97688889-0.22755555-2.16177778-0.22755555-4.43733333 0-6.59911111 0.34133333-4.77866667-0.34133333-8.76088889-6.144-9.67111112-1.36533333 0-2.27555555-0.91022222-2.16177778-2.38933333z m0 0" fill="#C3C3C0" p-id="1906"></path><path d="M656.61155555 691.31377778c-3.29955555-6.144-2.61688889-7.85066667 3.072-10.12622223 7.05422222-2.84444445 13.99466667-3.072 21.39022223-0.79644444 5.34755555 1.70666667 11.15022222 1.47911111 16.49777777-0.68266666 7.50933333-2.95822222 18.09066667 0.11377778 22.0728889 5.68888888 1.024 1.59288889 0.91022222 3.29955555 0.56888888 5.00622222" fill="#1C5DA4" p-id="1907"></path><path d="M705.30844445 447.37422222c-9.89866667 10.58133333-21.73155555 7.05422222-33.3368889 4.55111111-0.22755555-3.75466667-2.16177778-6.48533333-5.00622222-8.64711111 10.24-6.37155555 21.61777778-5.91644445 32.99555556-4.55111111 2.73066667 0.34133333 5.46133333 1.93422222 7.168 4.55111111l-1.82044444 4.096z m0 0" fill="#685303" p-id="1908"></path><path d="M720.09955555 693.93066667c0.56888889 5.00622222 0.34133333 8.53333333-6.48533333 5.57511111-6.25777778-2.73066667-12.97066667-2.16177778-19.34222222 0-3.86844445 1.25155555-7.62311111 2.048-11.37777778 0.45511111-7.39555555-3.072-14.79111111-3.072-22.18666667-0.34133334-2.84444445 1.024-5.34755555 1.70666667-6.03022222-2.38933333 0.11377778-1.59288889-0.34133333-3.41333333 1.36533334-4.43733333 8.41955555-3.072 17.06666667-4.20977778 25.71377778-1.25155556 5.12 1.70666667 10.35377778 0.79644445 15.13244444-0.68266666 8.41955555-2.50311111 15.81511111-0.56888889 23.21066666 3.072z m0 0" fill="#27639F" p-id="1909"></path><path d="M401.408 674.24711111c3.41333333 7.73688889 2.84444445 16.95288889 2.27555555 26.51022222-6.82666667-2.38933333-20.02488889-3.86844445-26.96533333-1.024-4.096 1.70666667-7.96444445 1.13777778-12.17422222-0.11377778-7.05422222-2.16177778-16.27022222-2.61688889-23.552 0-7.62311111 1.024-2.16177778-23.66577778-2.38933333-26.624" fill="#2C6498" p-id="1910"></path><path d="M681.64266667 440.20622222c-5.12 0-9.216 4.66488889-14.67733334 3.072-1.36533333-0.45511111-2.38933333-1.70666667-2.73066666-3.072-0.34133333-6.03022222 3.072-10.58133333 9.216-9.78488889 10.12622222 1.25155555 20.13866667-0.45511111 30.15111111 1.024 3.18577778 0.45511111 6.59911111 1.024 7.96444444 4.43733334 1.47911111 3.98222222-2.38933333 5.34755555-4.43733333 7.50933333l-0.11377778-0.11377778-25.37244444-3.072z m0 0" fill="#7E2F0E" p-id="1911"></path><path d="M707.12888889 443.392c5.23377778-7.62311111 4.20977778-10.12622222-5.23377778-10.35377778-4.20977778-0.11377778-9.10222222-3.18577778-12.85688889 1.47911111-3.75466667-3.41333333-8.53333333-1.25155555-12.85688889-2.27555555-5.80266667-1.47911111-10.69511111 2.048-11.94666666 7.96444444-2.38933333-6.37155555-0.45511111-9.89866667 5.23377778-12.06044444 5.57511111-2.048 12.40177778-0.91022222 16.61155555-6.48533333 0.91022222-1.25155555 2.73066667-1.13777778 3.98222222 0.22755555 4.096 4.66488889 9.78488889 5.91644445 15.47377778 6.48533333 3.86844445 0.34133333 6.82666667 1.47911111 7.168 5.80266667 0.34133333 4.20977778 0.45511111 8.53333333-5.57511111 9.216z m0 0" fill="#986C02" p-id="1912"></path><path d="M655.70133333 693.81688889l-1.024 3.41333333c-0.45511111-7.39555555-1.024-14.67733333 0.22755556-21.95911111 0.45511111 0.22755555 1.024 0.56888889 1.36533333 0.45511111 14.44977778-3.98222222 28.89955555 3.86844445 43.46311111-0.68266667 6.94044445-2.16177778 14.10844445-0.22755555 20.25244445 3.98222223 0.68266667 2.16177778 0.45511111 4.32355555-0.45511111 6.37155555-7.96444445-2.73066667-15.13244445-8.30577778-24.46222222-2.61688888-4.43733333 2.61688889-10.69511111 2.048-15.70133334-0.5688889-8.07822222-4.32355555-15.24622222-0.22755555-22.41422222 1.93422223-2.95822222 0.91022222-2.27555555 4.32355555-0.11377778 6.48533333 0.91022222 1.59288889-0.56888889 2.27555555-1.13777778 3.18577778z m0 0" fill="#AFB2B6" p-id="1913"></path><path d="M404.02488889 693.58933333c-2.95822222 0.45511111-5.68888889-0.11377778-8.53333334-0.79644444-6.144-1.36533333-12.51555555-2.048-18.432 0.91022222-2.73066667 1.25155555-5.57511111 1.70666667-8.53333333 0.91022222-8.192-2.50311111-16.49777778-3.75466667-24.91733333-0.68266666-1.47911111 0.56888889-3.41333333-0.11377778-5.00622222-0.22755556V690.63111111c9.55733333-4.096 19.00088889-6.144 28.672-0.34133333 2.16177778 1.25155555 5.12 1.25155555 7.05422222 0 8.87466667-5.34755555 17.63555555-3.86844445 26.51022222-0.34133333 1.47911111 0.56888889 2.27555555-0.34133333 3.072-1.024 0.11377778 1.47911111 0.11377778 3.072 0.11377778 4.66488888z m0 0" fill="#A4B2C1" p-id="1914"></path><path d="M543.97155555 335.64444445c-1.024 0-3.98222222 2.048-5.00622222 2.048-2.27555555-0.11377778-2.95822222-1.93422222-5.23377778-2.048-0.68266667-0.11377778-3.86844445 0.22755555-4.43733333 0-1.47911111-0.56888889-9.78488889 0-11.03644444-1.13777778-0.34133333-0.56888889 0.91022222-7.50933333 0.79644444-8.192 0.56888889-2.84444445 5.34755555-5.00622222 3.64088889-7.28177778 2.16177778-2.38933333 0.56888889-4.55111111-0.45511111-6.71288889-2.048-4.43733333-1.25155555-8.07822222 3.18577778-10.58133333 2.84444445-1.59288889 5.34755555-2.38933333 7.50933333 1.13777778 2.16177778 3.52711111 7.168 6.37155555 1.13777778 10.80888888-2.16177778 1.59288889-0.56888889 3.52711111 0.56888889 5.12-0.11377778 2.048-2.048 4.32355555 0.22755555 6.144 1.47911111 1.13777778 2.73066667-0.34133333 3.86844445-1.13777778 1.93422222 4.20977778-0.22755555 8.76088889 5.23377777 11.8328889z m0 0" fill="#B79401" p-id="1915"></path><path d="M719.98577778 679.13955555c-2.84444445-0.34133333-5.68888889-0.11377778-8.53333333-1.59288888-4.32355555-2.27555555-8.87466667-1.93422222-13.42577778 0-5.68888889 2.50311111-12.06044445 2.61688889-17.86311112 0.45511111-6.82666667-2.38933333-13.312-3.072-19.68355555 0.68266667-4.096 2.38933333-5.68888889 0.91022222-5.57511111-3.41333334 1.47911111-2.27555555 4.096-2.048 6.37155556-2.38933333l54.7271111 0.11377777c3.75466667 0.45511111 5.68888889 2.048 3.98222223 6.144z m0 0" fill="#1F5E9B" p-id="1916"></path><path d="M338.48888889 678.79822222c9.55733333-1.93422222 18.88711111-4.20977778 28.672-0.11377777 3.98222222 1.59288889 9.10222222 0.68266667 13.65333333-1.024 3.64088889-1.25155555 7.62311111-2.50311111 11.49155556-1.024 2.61688889 1.024 7.05422222 2.048 6.03022222 5.12-1.36533333 3.98222222-4.32355555 0.11377778-6.48533333-0.5688889-2.61688889-0.91022222-5.57511111-1.59288889-7.96444445-0.4551111-8.53333333 4.096-16.61155555 3.41333333-25.25866667 0.11377777-3.52711111-1.36533333-8.07822222-1.59288889-11.94666666 1.25155556-2.38933333 1.82044445-5.34755555 2.16177778-8.41955556 1.59288889l0.22755556-4.89244445z m0 0" fill="#ABB4BE" p-id="1917"></path><path d="M655.70133333 693.81688889c0.45511111-1.024 0.79644445-2.048 1.25155556-3.18577778 6.82666667-3.64088889 13.76711111-3.98222222 21.16266666-1.93422222 5.34755555 1.47911111 10.80888889 3.072 16.384 0.45511111 8.76088889-3.98222222 17.18044445-0.22755555 25.71377778 1.25155555l0.11377778 3.41333334c-21.61777778-1.82044445-43.12177778-2.048-64.62577778 0z m0 0" fill="#A8B7C6" p-id="1918"></path><path d="M395.83288889 528.27022222c-7.39555555-4.20977778-2.048-6.37155555 1.25155556-9.10222222 0.68266667-0.56888889 1.13777778-1.59288889 1.70666666-2.38933333l4.55111111 0.11377778c-1.59288889 5.46133333 0.79644445 10.92266667 0.11377778 16.49777777" fill="#B7610D" p-id="1919"></path><path d="M386.95822222 538.96533333c1.024 3.072-0.22755555 6.59911111 1.47911111 9.55733334v0.11377778c-0.34133333 5.23377778-1.93422222 10.46755555-0.56888888 15.8151111 0.79644445 3.072-1.36533333 3.64088889-3.75466667 3.98222223-3.64088889 0.11377778-4.66488889-2.50311111-4.89244445-5.23377778-0.56888889-6.59911111-0.79644445-13.19822222 0.11377778-19.68355555 0.68266667-3.98222222 2.73066667-6.94044445 7.62311111-4.55111112z m0 0" fill="#CFCBC8" p-id="1920"></path><path d="M367.84355555 423.936c0.11377778 1.13777778 0 2.38933333 0.22755556 3.52711111 1.47911111 8.41955555-1.13777778 11.03644445-10.24 9.67111111-2.73066667-2.048-4.43733333-4.89244445-6.37155556-7.50933333 4.32355555-4.89244445 11.49155555-2.16177778 16.384-5.68888889z m13.53955556 3.98222222c-1.13777778 3.29955555-1.25155555 8.07822222-6.144 7.28177778-3.75466667-0.56888889-5.00622222-4.096-3.86844444-7.96444445 0.79644445-2.84444445-1.47911111-3.072-3.41333334-3.41333333-0.11377778-2.27555555-0.34133333-4.77866667 2.61688889-5.23377777 1.93422222-0.34133333 2.95822222 1.59288889 3.29955556 3.29955555 0.68266667 4.32355555 6.144 2.61688889 7.50933333 6.03022222z m0 0" fill="#945409" p-id="1921"></path><path d="M346.56711111 438.61333333c-1.36533333-4.66488889 0.34133333-7.62311111 4.77866667-8.98844444 4.43733333 0.56888889 5.46133333 3.98222222 6.37155555 7.50933333l-11.15022222 1.47911111z m0 0" fill="#9E2D11" p-id="1922"></path><path d="M392.98844445 440.20622222c-0.79644445-0.45511111-1.47911111-1.25155555-2.38933334-1.36533333-2.50311111-0.34133333-5.46133333 0.11377778-6.25777778-3.41333334-0.91022222-3.64088889 1.82044445-5.00622222 4.096-6.71288888 4.66488889 2.61688889 8.87466667 5.34755555 4.55111112 11.49155555z m0 0" fill="#9D400E" p-id="1923"></path><path d="M538.85155555 323.81155555c-0.11377778 1.93422222 0.11377778 4.096-2.73066666 4.20977778-2.16177778 0-3.86844445-0.79644445-4.43733334-2.95822222-0.56888889-2.73066667-0.68266667-5.46133333 2.95822223-6.144 1.36533333 1.59288889 2.84444445 3.18577778 4.20977777 4.89244444z m-16.15644444-4.77866666c6.48533333 0.34133333 4.89244445 3.86844445 2.95822222 7.62311111-2.95822222 2.16177778-5.46133333 1.59288889-7.39555555-1.36533333-0.34133333-3.41333333 2.27555555-4.66488889 4.43733333-6.25777778z m0 0" fill="#7C7F43" p-id="1924"></path><path d="M394.24 453.74577778c-2.95822222-0.11377778-5.80266667-0.34133333-8.87466667-0.45511111-0.11377778-3.18577778 1.13777778-5.34755555 3.18577778-7.168-1.70666667 5.34755555 3.64088889 5.23377778 5.68888889 7.62311111z m0 0" fill="#BDA600" p-id="1925"></path><path d="M575.82933333 621.568c-3.41333333-4.096-6.48533333-7.96444445-12.288-9.55733333-6.48533333-1.82044445-5.91644445-9.55733333-8.07822222-14.67733334-0.68266667-1.59288889 2.048-3.18577778 3.64088889-1.82044444 5.00622222 4.20977778 14.336 3.98222222 14.22222222 13.76711111 0 2.95822222 2.95822222 6.37155555 5.57511111 5.46133333 2.84444445-1.024 2.16177778-5.46133333 0.56888889-7.62311111-3.18577778-4.43733333-4.77866667-8.192-1.13777777-13.312 1.59288889-2.27555555-0.79644445-4.66488889-2.50311112-6.25777777-2.048-1.82044445-3.52711111 0-5.00622222 1.25155555-2.73066667 2.38933333-6.37155555 3.18577778-8.53333333 0.79644445-2.16177778-2.50311111-0.11377778-6.37155555 1.36533333-8.87466667 1.93422222-3.18577778 5.12-0.11377778 7.39555556-0.22755556 7.73688889-0.56888889 15.47377778 0.79644445 23.21066666-0.22755555 1.36533333-0.22755555 2.73066667-1.36533333 4.096-1.36533334 6.82666667 0.11377778 13.08444445 4.55111111 20.82133334 0.68266667 3.41333333-1.70666667 6.82666667 4.096 3.75466666 8.87466667-2.95822222 4.55111111-3.18577778 8.53333333 0.45511112 12.62933333 1.25155555 1.36533333 1.47911111 3.29955555 0.91022222 4.89244445-3.64088889 10.92266667-0.11377778 21.95911111-0.79644445 32.768-0.45511111 8.07822222-4.32355555 16.49777778-8.64711111 23.552-2.27555555 3.75466667-8.41955555 5.34755555-10.12622222 10.6951111-0.11377778 0.45511111-0.68266667 1.024-1.024 1.024-8.87466667 0.91022222-17.06666667 6.82666667-26.51022222 3.98222223-0.22755555-0.11377778-0.45511111-0.34133333-0.68266667-0.34133333-12.288 1.70666667-18.20444445-8.87466667-26.73777778-14.10844445-1.25155555-0.68266667-3.072-2.16177778-2.95822222-2.95822222 1.13777778-9.10222222-4.66488889-16.72533333-4.55111111-26.05511111 0.11377778-7.73688889 2.16177778-15.81511111 0.22755556-23.32444445-0.91022222-3.52711111-1.13777778-5.23377778 1.93422222-5.23377777 3.75466667-0.11377778 4.66488889-7.05422222 8.192-3.75466667 3.18577778 3.072-1.82044445 5.80266667-2.84444445 8.87466667-0.91022222 2.95822222-1.36533333 6.37155555 0.79644445 9.10222222 1.59288889 1.93422222 4.66488889 2.38933333 6.03022222 1.36533333h19.22844444z m0 0" fill="#C29C04" p-id="1926"></path><path d="M518.59911111 592.55466667c-10.35377778-6.03022222-14.67733333-15.58755555-14.22222222-27.07911112 0.45511111-11.03644445 4.55111111-20.25244445 15.36-25.48622222 10.35377778-5.00622222 24.00711111 0.11377778 29.696 11.264 7.85066667 15.36 2.50311111 34.13333333-11.37777778 41.18755556-6.59911111 2.73066667-12.97066667 3.41333333-19.456 0.11377778z m0 0" fill="#0359B7" p-id="1927"></path><path d="M491.63377778 557.96622222c-19.11466667 0-50.63111111 0.91022222-50.28977778-4.55111111 0.45511111-4.32355555 2.61688889-76.00355555 10.01244445-86.47111111 3.98222222-6.25777778 45.85244445-5.12 51.08622222 1.25155555 3.072 3.75466667 17.18044445 52.45155555 0.91022222 69.40444445" fill="#6D5F03" p-id="1928"></path><path d="M507.56266667 680.96c-2.27555555 3.75466667-6.71288889 3.75466667-10.12622222 5.68888889-3.64088889-0.68266667-2.73066667-3.52711111-2.73066667-5.80266667v-90.45333333c0-2.38933333-0.68266667-5.23377778 3.072-5.57511111 9.32977778 12.06044445 7.39555555 26.28266667 7.39555555 40.04977777 0 16.61155555 0 33.22311111 0.11377778 49.83466667-0.11377778 2.38933333-0.45511111 4.89244445 2.27555556 6.25777778z m0 0" fill="#C2AB00" p-id="1929"></path><path d="M521.216 665.71377778c-1.82044445-2.95822222-2.84444445-6.03022222-2.84444445-9.67111111 0-14.10844445-0.34133333-28.33066667-0.34133333-42.43911112 0-2.73066667-1.47911111-6.71288889 3.98222223-6.71288888 4.66488889 0 6.71288889 2.27555555 6.5991111 6.71288888-0.34133333 10.92266667 0.79644445 21.95911111-0.56888888 32.88177778-0.34133333 2.38933333 0.22755555 4.77866667 0.45511111 7.168 1.47911111 5.57511111-1.36533333 9.32977778-5.23377778 12.74311112-0.68266667 0.11377778-1.47911111-0.11377778-2.048-0.68266667z m0 0" fill="#BBA501" p-id="1930"></path><path d="M597.90222222 496.41244445c-0.91022222-0.91022222-1.13777778-1.93422222-1.36533333-3.18577778-0.22755555-6.37155555-1.93422222-12.74311111 0.56888889-18.88711112 2.73066667-2.16177778 6.144-3.41333333 8.41955555-6.25777777 2.048 3.29955555 4.20977778 4.77866667 8.192 1.93422222 2.16177778-1.47911111 5.91644445-3.41333333 8.07822222-0.91022222 2.38933333 2.73066667 1.70666667 6.71288889-0.91022222 9.32977777-9.67111111 9.44355555-7.62311111 19.68355555-3.41333333 30.72 2.048 5.34755555-0.56888889 10.35377778-5.91644445 13.312-8.53333333 4.66488889-8.53333333 4.77866667-3.18577777 12.62933334 2.38933333 3.41333333 0.91022222 5.91644445-1.36533333 8.41955556-3.29955555-3.64088889-5.00622222-8.192-7.39555556-12.288-3.072-5.23377778 2.16177778-7.50933333 5.00622222-10.58133334-5.57511111-1.70666667-5.57511111-1.70666667-6.03022222-5.91644444" fill="#B57E96" p-id="1931"></path><path d="M598.016 515.29955555c1.82044445 5.34755555 7.73688889 1.36533333 11.03644445 4.77866667-2.27555555 1.59288889-4.66488889 2.61688889-6.48533334 4.55111111-2.73066667 2.73066667-3.29955555 4.66488889-0.34133333 7.85066667 2.73066667 2.95822222 4.77866667 6.82666667 4.66488889 11.15022222l-0.45511112 9.89866667c-4.89244445 1.36533333-7.73688889-3.29955555-11.83288888-4.20977778-2.27555555-5.57511111 3.64088889-4.77866667 5.80266666-7.39555556-2.50311111-3.072-10.80888889 2.84444445-9.78488888-5.80266666-1.36533333-2.16177778-1.024-4.66488889-0.68266667-6.94044444 1.70666667-10.01244445 1.59288889-10.24-8.41955556-11.03644445l-1.36533333-4.096c-1.82044445-2.84444445-4.32355555-5.80266667-1.13777778-9.216 3.86844445-4.20977778 8.64711111-3.75466667 13.53955556-2.50311111 4.096 3.41333333 5.80266667 7.73688889 5.46133333 12.97066666z m0 0" fill="#E173A5" p-id="1932"></path><path d="M597.90222222 474.22577778v19.00088889c-6.25777778 8.64711111-9.67111111 9.44355555-19.11466667 3.64088888-2.27555555-1.36533333-4.66488889-2.61688889-7.05422222-3.75466666-2.50311111-1.25155555-3.86844445-2.95822222-1.59288888-5.68888889 2.61688889-0.45511111 5.80266667 0.56888889 7.05422222-2.95822222 1.47911111-3.98222222 4.66488889-6.94044445 6.25777778-11.15022223 1.13777778-3.072 7.62311111-2.73066667 11.83288888-3.29955555 1.82044445 0.91022222 3.52711111 1.70666667 2.61688889 4.20977778z m0 0" fill="#E56FA5" p-id="1933"></path><path d="M561.152 496.18488889l-0.34133333 0.11377778c-4.20977778 0.56888889-6.94044445-1.47911111-8.87466667-5.12-0.56888889-1.024-1.13777778-2.84444445-1.82044445-2.95822222-6.144-0.68266667-7.168-2.16177778-5.5751111-9.10222223 1.024-4.66488889-0.45511111-7.05422222 5.46133333-5.57511111 1.36533333 0.34133333 2.27555555-0.56888889 3.18577777-1.47911111 1.36533333-1.36533333 2.50311111-3.52711111 4.77866667-1.70666667 1.47911111 1.13777778 1.82044445 3.18577778 0.79644445 4.66488889-2.38933333 3.98222222 1.25155555 6.144 2.27555555 9.10222223" fill="#AA7489" p-id="1934"></path><path d="M588.8 529.86311111c-2.048 0.45511111-2.38933333 1.93422222-2.61688889 3.86844444-1.36533333 10.92266667-1.36533333 10.92266667-11.83288889 8.07822223-2.50311111-0.45511111-4.89244445-1.47911111-6.03022222-3.75466667-1.36533333-2.73066667-2.38933333-6.144 3.072-5.00622222 5.23377778 2.73066667 5.91644445-0.34133333 5.34755555-4.43733334-0.45511111-2.84444445-2.048-6.25777778 1.25155556-7.85066666 3.29955555-1.70666667 7.28177778-2.048 10.69511111-0.45511111 6.03022222 2.73066667 0.91022222 6.37155555 0.11377778 9.55733333z m0 0" fill="#E173A5" p-id="1935"></path><path d="M594.83022222 471.15377778c-3.29955555-0.11377778-5.57511111 4.55111111-9.44355555 2.048-0.68266667-0.45511111-1.47911111 0.34133333-1.25155556 1.13777777 2.048 6.37155555-3.64088889 7.50933333-6.94044444 10.35377778-1.47911111-3.29955555-5.00622222-3.64088889-7.50933334-5.34755555-1.59288889-1.13777778-3.18577778-2.50311111-2.61688888-4.77866667 0.56888889-2.048 2.50311111-1.59288889 4.20977777-2.048 7.62311111-1.70666667 15.81511111-2.95822222 17.74933333-12.62933333 1.93422222 3.64088889 4.096 7.28177778 5.80266667 11.264z m0 0" fill="#A96571" p-id="1936"></path><path d="M559.44533333 512.34133333c-0.45511111 1.70666667-0.91022222 3.29955555-1.36533333 4.89244445-0.91022222 3.18577778-1.82044445 3.29955555-5.00622222 1.47911111-6.03022222-3.52711111-5.68888889-8.87466667-5.80266667-14.22222222-0.11377778-2.95822222 2.61688889-2.50311111 4.43733334-2.38933334 3.18577778 0.22755555 6.25777778 0.79644445 9.44355555 1.25155556 0.91022222 2.048-0.45511111 3.18577778-1.82044445 3.98222222-3.18577778 2.048-1.36533333 3.41333333 0.11377778 5.00622222z m0 0" fill="#A67C8D" p-id="1937"></path><path d="M571.392 532.93511111c-4.096 1.13777778-3.41333333 3.29955555-0.91022222 5.34755556 1.36533333 1.13777778 3.75466667 0.91022222 3.75466667 3.41333333-3.98222222 7.28177778-2.95822222 5.91644445-9.10222223 1.36533333-6.37155555-4.77866667-1.13777778-8.64711111-1.59288889-12.85688888-0.22755555-1.59288889 2.048-1.70666667 3.52711112-1.82044445 3.18577778 0.11377778 4.77866667 1.36533333 4.32355555 4.55111111z m0 0" fill="#AC6986" p-id="1938"></path><path d="M559.44533333 512.34133333c-1.93422222-0.34133333-4.89244445 1.13777778-5.46133333-1.93422222-0.56888889-2.73066667 1.82044445-3.52711111 3.98222222-4.096 1.47911111-0.34133333 2.38933333-1.47911111 2.95822223-2.95822222l1.25155555-1.25155556c3.75466667 1.93422222 7.28177778-3.52711111 11.15022222-0.34133333 0.91022222 0.79644445 3.18577778 0 3.072 2.16177778-0.11377778 1.59288889-1.70666667 2.16177778-3.18577777 2.38933333-4.66488889 0.79644445-9.10222222 1.93422222-12.40177778 5.57511111l-1.36533334 0.45511111z m0 0" fill="#DB6D9F" p-id="1939"></path><path d="M561.152 496.18488889c-3.98222222-3.072-4.096-8.98844445-8.53333333-11.71911111-1.25155555-0.68266667-1.82044445-1.70666667-0.91022222-2.95822223 1.024-1.36533333 2.16177778-0.68266667 3.072 0.22755556 1.82044445 1.93422222 3.86844445 2.95822222 6.48533333 2.50311111 1.024 1.59288889 4.096-0.34133333 4.32355555 2.50311111 0 1.13777778-0.22755555 2.50311111 0.22755556 3.52711112 0.79644445 1.82044445 3.64088889 2.84444445 1.93422222 5.46133333-2.048 3.072-4.43733333 0.22755555-6.59911111 0.45511111z m0 0" fill="#DD6DA0" p-id="1940"></path><path d="M594.48888889 549.31911111c5.34755555-2.50311111 7.50933333 3.75466667 11.83288889 4.20977778 0 2.27555555-0.68266667 5.46133333-3.18577778 4.096-3.41333333-1.82044445-10.69511111-0.56888889-8.64711111-8.30577778z m0 0" fill="#8B5765" p-id="1941"></path><path d="M507.44888889 403.22844445c-0.56888889-0.56888889-0.79644445-1.93422222-1.93422222-1.5928889-0.68266667 0.22755555-0.34133333 1.25155555-0.45511112 1.93422223-4.096 8.30577778-10.92266667 9.78488889-19.22844444 4.20977777-2.61688889-5.68888889 1.70666667-6.71288889 5.46133334-8.192 2.27555555-1.13777778 4.20977778-2.61688889 4.43733333-5.46133333-0.91022222-3.41333333-3.64088889-3.072-6.25777778-3.18577777-1.70666667-0.11377778-3.98222222 0.68266667-3.86844445-2.38933334-0.68266667-4.32355555-5.91644445-6.37155555-4.5511111-12.288 0.91022222-3.75466667 1.82044445-6.94044445 4.5511111-9.55733333 8.98844445-6.37155555 19.56977778-6.71288889 29.92355556-7.62311111 5.46133333 0.34133333 4.66488889 3.86844445 3.52711111 7.28177778-1.13777778 3.41333333-1.36533333 5.91644445 2.38933333 7.85066666 6.144 3.18577778-2.38933333 6.59911111-0.11377777 9.89866667-0.22755555 4.096-3.86844445 2.50311111-5.91644445 3.64088889-2.84444445 1.36533333-6.94044445 2.048-4.43733333 6.82666666 3.75466667 2.95822222 8.07822222 2.38933333 12.40177778 2.38933334 3.18577778 1.93422222 2.27555555 5.00622222 2.16177777 7.73688888l-1.36533333 1.5928889-16.72533333-3.072z m0 0" fill="#A91718" p-id="1942"></path><path d="M540.44444445 388.55111111c-6.59911111-2.95822222-7.85066667-8.07822222-3.072-13.99466666 1.70666667-2.16177778 1.93422222-4.55111111 1.59288888-6.94044445-0.68266667-5.80266667 2.048-7.62311111 7.28177778-6.94044445 8.192-1.024 16.04266667-0.68266667 22.41422222 5.6888889 1.024 2.50311111 4.43733333 0.68266667 5.57511112 2.95822222 3.41333333 14.56355555 3.41333333 14.56355555-10.12622223 22.07288888-4.20977778 2.27555555-4.89244445 4.66488889-0.22755555 7.28177778 0.68266667 0.22755555 1.36533333 0.56888889 1.93422222 0.79644445 3.29955555 1.36533333 9.55733333-0.45511111 6.94044444 6.82666667-2.84444445 6.25777778-8.41955555 4.43733333-13.312 4.20977777-4.20977778-0.22755555-5.12-3.75466667-5.68888888-7.28177777-0.34133333-0.79644445-0.11377778-2.16177778-1.13777778-2.27555556-0.79644445 0-1.024 1.36533333-1.70666667 2.048-0.34133333 3.29955555-3.75466667 4.66488889-4.77866667 7.50933333l0.11377778-0.11377777c-6.25777778 0.79644445-10.58133333-1.82044445-13.42577778-7.28177778-1.13777778-2.38933333-1.024-4.43733333 1.70666667-5.68888889 0.91022222-0.34133333 1.82044445-0.45511111 2.84444445-0.56888889 2.84444445-0.34133333 6.59911111 0.11377778 7.73688888-2.95822222 1.13777778-2.84444445-3.86844445-2.61688889-4.66488888-5.34755556z m0 0" fill="#AA1819" p-id="1943"></path><path d="M429.96622222 387.18577778c-0.56888889-3.52711111 0.34133333-7.73688889 4.096-10.24 3.18577778-4.89244445 7.85066667-6.03022222 13.312-4.89244445 2.95822222 0.56888889 5.68888889-0.11377778 8.53333333-0.68266666 6.94044445-1.36533333 13.42577778-1.13777778 16.72533334 6.71288888 0.56888889 0.45511111 1.59288889 1.13777778 1.47911111 1.47911112-1.82044445 5.46133333-1.024 11.71911111-5.68888889 16.15644444-3.29955555 4.20977778-1.82044445 6.25777778 3.072 6.48533334 1.70666667 0.11377778 3.41333333-0.45511111 5.12 0.22755555 3.52711111 2.61688889 3.64088889 5.34755555 0.56888889 8.41955555-5.80266667 6.25777778-7.28177778 6.25777778-17.86311111-1.25155555-2.16177778 2.38933333-0.11377778 7.28177778-4.43733334 8.192-2.84444445 0.68266667-5.23377778-0.56888889-7.28177777-2.50311111l-0.91022223-2.95822222c-10.12622222-1.36533333-12.17422222-5.68888889-15.24622222-14.336l-1.47911111-10.80888889z m0 0" fill="#AA1719" p-id="1944"></path><path d="M596.65066667 412.10311111c-7.50933333 4.66488889-11.15022222 4.43733333-16.49777778-1.36533333-1.25155555-8.07822222-1.25155555-8.30577778 6.03022222-6.25777778 2.38933333 0.68266667 3.41333333-1.024 5.12-1.70666667 0.56888889-0.34133333 1.13777778-0.68266667 1.70666667-0.91022222 3.52711111-1.82044445 1.13777778-4.32355555-0.34133333-4.89244444-6.37155555-2.73066667-7.50933333-8.87466667-10.01244445-14.10844445-0.22755555-0.68266667-0.22755555-1.36533333-0.22755555-2.048 0.22755555-1.13777778 1.13777778-1.70666667 2.048-2.27555555 2.84444445-7.168 8.53333333-8.41955555 15.24622222-6.94044445 2.84444445 0.56888889 5.68888889 1.13777778 8.53333333 0.68266667 6.48533333-0.91022222 12.17422222 0.22755555 15.81511111 6.37155556 4.66488889 3.75466667 2.61688889 9.55733333 4.32355556 14.336 0.45511111 1.25155555-10.24 8.41955555-11.94666667 8.192-1.70666667-0.22755555-3.41333333-0.68266667-5.00622222-0.5688889-2.50311111 0.11377778-5.12 0.56888889-5.91644445 3.41333334-0.68266667 2.61688889 2.16177778 3.64088889 3.18577778 5.46133333 1.13777778 1.93422222 5.68888889 0.79644445 4.55111111 3.64088889-1.024 2.61688889-3.75466667 5.23377778-7.39555555 5.12-2.50311111 0-5.57511111 1.13777778-6.71288889-2.61688889-0.34133333-1.13777778-1.024-2.16177778-1.59288889-3.29955555 0-0.45511111-0.11377778-1.13777778-0.34133334-1.13777778-0.56888889-0.22755555-0.34133333 0.45511111-0.56888888 0.91022222z m0 0" fill="#A91718" p-id="1945"></path><path d="M572.75733333 436.90666667c8.07822222 0.34133333 9.67111111 4.32355555-1.59288888 6.71288888-8.76088889 0-41.41511111 2.27555555-41.41511112 2.27555556-17.18044445 0-45.73866667-2.048-47.55911111-2.50311111-9.44355555-2.61688889-11.03644445-5.57511111 5.57511111-8.87466667 7.62311111-0.34133333 23.77955555-2.50311111 41.984-2.50311111l43.008 4.89244445z m0 0" fill="#931B14" p-id="1946"></path><path d="M476.95644445 359.87911111c-0.68266667-5.80266667 3.64088889-13.08444445 9.55733333-15.01866666 8.98844445-2.84444445 18.20444445-2.95822222 27.42044444-0.91022223 3.75466667 0.79644445 5.34755555 2.84444445 5.91644445 6.25777778 0.68266667 3.98222222-0.11377778 7.168-4.20977778 8.64711111l-38.68444444 1.024z m0 0" fill="#FAC100" p-id="1947"></path><path d="M568.77511111 366.47822222c-7.168-3.072-14.90488889-3.98222222-22.41422222-5.68888889-1.13777778-3.52711111-6.82666667-1.47911111-7.39555556-6.144-0.68266667-5.91644445-1.47911111-10.35377778 7.05422222-11.83288888 11.264-2.048 21.27644445-1.59288889 29.80977778 6.71288888 3.75466667 3.64088889 6.03022222 8.07822222 3.86844445 13.312-2.048 4.89244445-7.05422222 3.29955555-10.92266667 3.64088889z m55.40977778 11.94666667c-4.77866667-3.41333333-10.24-5.00622222-15.81511111-6.37155556-3.41333333-1.82044445-7.28177778-2.73066667-11.264-2.61688888-6.25777778 0.34133333-7.73688889-4.32355555-6.144-8.07822223 1.47911111-3.41333333 0.68266667-10.92266667 8.64711111-8.98844444 6.59911111 1.47911111 13.19822222 2.50311111 19.68355556 4.89244444 6.82666667 2.50311111 9.44355555 7.50933333 10.92266666 13.42577778 1.13777778 4.43733333-0.68266667 7.85066667-6.03022222 7.73688889zM447.37422222 372.05333333c-4.32355555 1.82044445-9.32977778 1.82044445-13.312 4.89244445-2.16177778-0.11377778-5.12 2.73066667-6.37155555-0.68266667-1.25155555-3.41333333-1.70666667-7.28177778 0.91022222-10.46755556 4.89244445-5.91644445 10.35377778-11.03644445 18.77333333-11.264 2.16177778-0.11377778 4.32355555-0.91022222 6.37155556-1.25155555 11.15022222-2.048 13.99466667 1.25155555 11.60533333 12.85688889-0.68266667 3.52711111-3.072 3.18577778-5.46133333 3.29955556-4.32355555 0-8.87466667-0.68266667-12.51555556 2.61688888z m0 0" fill="#F9BF00" p-id="1948"></path><path d="M532.82133333 367.72977778c-0.56888889 2.61688889-0.22755555 5.91644445-4.66488888 5.91644444-3.52711111 0-4.20977778-1.93422222-3.75466667-4.77866667 0.45511111-3.18577778 0.79644445-6.82666667 5.00622222-6.82666666 3.29955555 0.11377778 3.29955555 3.072 3.41333333 5.68888889z m0 0" fill="#B0AA83" p-id="1949"></path><path d="M537.94133333 422.57066667c-1.25155555 6.71288889-16.61155555 6.71288889-17.63555555 0.11377778 2.27555555-9.55733333 16.15644445-6.94044445 17.63555555-0.11377778z m0 0" fill="#A71817" p-id="1950"></path><path d="M558.08 428.37333333c-1.93422222-4.43733333-2.84444445-3.29955555 0-6.25777778 4.55111111-0.79644445 10.80888889-1.47911111 13.08444445 3.6408889l-1.36533334 2.27555555c-3.86844445 2.16177778-7.73688889 2.73066667-11.71911111 0.34133333z m0 0" fill="#218957" p-id="1951"></path><path d="M505.05955555 403.56977778c-1.47911111-1.13777778-3.52711111-2.16177778-2.16177777-4.55111111 0.34133333-0.68266667 1.70666667-1.25155555 2.38933333-1.024 2.84444445 0.79644445 2.73066667 2.95822222 2.048 5.23377778l-2.27555556 0.34133333z m0 0" fill="#B87875" p-id="1952"></path><path d="M551.13955555 403.11466667c-0.45511111-2.16177778-1.024-4.32355555 1.13777778-6.03022222 0.34133333-0.22755555 1.47911111-0.11377778 1.82044445 0.34133333 1.82044445 1.93422222 1.47911111 3.98222222-0.11377778 5.80266667l-2.84444445-0.11377778z m0 0" fill="#B6827C" p-id="1953"></path><path d="M528.95288889 360.10666667c-1.82044445-0.11377778-2.38933333-1.36533333-2.38933334-2.84444445-0.11377778-0.56888889 0.11377778-1.25155555 0.5688889-1.59288889 0.45511111-0.45511111 1.024-0.68266667 1.59288888-0.68266666 1.47911111-0.11377778 2.95822222 0.22755555 2.84444445 2.16177778-0.11377778 1.36533333-1.13777778 2.61688889-2.61688889 2.95822222z m0 0" fill="#B0AA83" p-id="1954"></path><path d="M596.65066667 412.10311111c-1.47911111-1.93422222-2.16177778-3.86844445 0.45511111-5.34755556 0.56888889-0.34133333 2.048 0.11377778 2.38933333 0.68266667 1.70666667 2.38933333-1.024 3.072-1.93422222 4.55111111-0.22755555 0-0.56888889 0-0.91022222 0.11377778z m0 0" fill="#A36F6F" p-id="1955"></path><path d="M683.46311111 480.14222222c10.24 0.22755555 11.49155555 6.48533333 10.35377778 14.79111111-0.45511111 3.072-0.11377778 6.37155555-0.11377778 9.55733334 0 11.15022222-0.79644445 11.94666667-11.94666666 12.40177778l-10.01244445-0.45511112c0-8.53333333-0.11377778-17.06666667-0.11377778-25.71377778 0-11.60533333 0-11.60533333 11.83288889-10.58133333z m0 0" fill="#DADADA" p-id="1956"></path><path d="M700.87111111 540.10311111l-2.61688889-0.34133333c-0.56888889-1.70666667-1.25155555-3.29955555-3.18577777-3.64088889-7.39555555-1.024-3.75466667-5.68888889-2.95822223-9.216 1.25155555-5.00622222 4.66488889-3.75466667 7.96444445-2.38933334 2.73066667 1.024 4.66488889 2.16177778 3.072 5.91644445-1.25155555 2.95822222-1.47911111 6.48533333-2.27555556 9.67111111z m0 0" fill="#C19405" p-id="1957"></path><path d="M719.18933333 537.14488889c-0.11377778 1.93422222-0.11377778 3.98222222-0.56888888 5.80266666-0.34133333 1.13777778-1.13777778 2.048-2.16177778 2.73066667-0.56888889 0.34133333-2.38933333-0.56888889-2.38933334-0.79644444 0.11377778-4.89244445-7.39555555-5.00622222-6.37155555-9.10222223 0.79644445-3.41333333 5.23377778-5.46133333 8.87466667-5.00622222 3.072 0.34133333 3.75466667 3.41333333 2.61688888 6.37155556z m0 0" fill="#C08E05" p-id="1958"></path><path d="M655.01866667 534.30044445c-5.12-1.93422222-7.62311111-6.03022222-9.55733334-10.58133334-0.45511111-0.91022222 0.11377778-1.93422222 1.25155556-2.27555556 1.70666667-0.56888889 3.64088889-0.34133333 4.66488889 1.13777778 2.16177778 3.18577778 4.096 5.68888889 7.28177777 0.91022222 0.45511111-0.79644445 2.048-0.68266667 2.27555556 0.45511112 0.68266667 2.50311111-0.79644445 4.66488889-1.70666666 6.82666666-0.79644445 1.82044445-2.16177778 3.52711111-4.20977778 3.52711112z m0 0" fill="#BF8207" p-id="1959"></path><path d="M688.58311111 521.89866667c-1.47911111 2.95822222-3.98222222 4.55111111-3.75466666 7.62311111 0.11377778 1.47911111-0.22755555 3.18577778-2.16177778 2.95822222-1.47911111-0.22755555-2.048-1.70666667-2.38933334-3.29955555-1.25155555-6.25777778 0.68266667-8.192 8.30577778-7.28177778z m0 0" fill="#C08D06" p-id="1960"></path><path d="M667.42044445 521.55733333c2.95822222 3.75466667 3.64088889 6.82666667 1.4791111 10.12622222-0.22755555 0.34133333-1.59288889 0.34133333-1.82044444 0.11377778-2.38933333-3.18577778-1.82044445-6.25777778 0.34133334-10.24z m0 0" fill="#C08A06" p-id="1961"></path><path d="M693.58933333 646.37155555c-5.57511111 0.22755555-11.264 0.34133333-16.95288888 0.5688889-3.18577778 0.11377778-5.12-0.79644445-5.12-4.55111112 0.11377778-16.27022222 0-32.42666667 0-48.58311111 0-1.93422222 0.91022222-3.18577778 2.61688888-3.98222222 6.37155555 1.93422222 12.51555555 4.20977778 18.09066667 7.73688889" fill="#DADADA" p-id="1962"></path><path d="M705.42222222 635.79022222c0.11377778 11.60533333 0 11.60533333-11.83288889 10.58133333-0.56888889-16.27022222 1.36533333-32.54044445-1.25155555-48.81066666 4.43733333 1.024 9.10222222 1.82044445 12.74311111 5.00622222l0.34133333 33.22311111z m0 0" fill="#C2C0BE" p-id="1963"></path><path d="M376.71822222 646.37155555c-21.95911111 1.024-21.95911111 1.024-22.07288889-20.70755555 0-7.73688889-0.22755555-15.58755555-0.22755555-23.32444445 3.64088889-3.98222222 9.55733333-3.072 13.65333333-6.03022222 9.67111111-1.59288889 10.92266667-0.68266667 11.03644444 8.64711112 0.22755555 11.03644445 0.11377778 22.07288889 0 33.10933333 0 3.072-0.11377778 6.03022222-2.38933333 8.30577777z m0 0" fill="#D9D9D9" p-id="1964"></path><path d="M364.88533333 578.44622222c-10.46755555 2.73066667-10.69511111 2.50311111-10.58133333-8.64711111 0.11377778-6.25777778 0-12.62933333 0-18.88711111 0-6.25777778 2.27555555-10.35377778 9.10222222-10.58133333 15.58755555-1.82044445 15.70133333-1.70666667 15.47377778 13.88088888-0.11377778 6.25777778 1.82044445 12.74311111-2.16177778 18.54577778-3.98222222 1.82044445-7.96444445 3.75466667-11.83288889 5.68888889z m0 0" fill="#D8D6D6" p-id="1965"></path><path d="M376.71822222 646.37155555c0-13.88088889-0.34133333-27.648 0.34133333-41.52888888 0.34133333-7.28177778-2.27555555-9.67111111-8.98844444-8.53333334 4.77866667-2.16177778 9.32977778-5.00622222 14.56355556-5.91644444 2.27555555 2.048 2.16177778 4.77866667 2.27555555 7.39555556v40.96c0 2.73066667 0 5.46133333-2.048 7.50933333-2.16177778 0.11377778-4.20977778 0.11377778-6.144 0.11377777z m0 0" fill="#ADACAC" p-id="1966"></path><path d="M497.77777778 428.82844445c-3.75466667-0.11377778-6.59911111 1.13777778-11.15022223-2.73066667 3.072-5.34755555 8.87466667-5.34755555 12.62933334-3.86844445 1.70666667 1.13777778-0.56888889 5.23377778-1.47911111 6.59911112z m0 0" fill="#1A895C" p-id="1967"></path><path d="M362.04088889 518.25777778c-4.32355555 0.22755555-6.03022222-1.82044445-5.91644444-6.25777778 0.22755555-8.53333333 0.22755555-17.06666667 0-25.6-0.11377778-3.75466667 1.47911111-4.89244445 5.12-5.12 15.58755555-0.91022222 15.58755555-1.024 15.58755555 14.44977778 0 2.73066667-0.34133333 5.46133333 0.11377778 8.07822222 0.91022222 6.37155555-1.13777778 10.80888889-7.39555556 13.08444445-2.38933333 1.70666667-5.00622222 1.47911111-7.50933333 1.36533333z m0 0" fill="#D9D9D9" p-id="1968"></path><path d="M351.91466667 525.08444445c2.048-0.11377778 3.86844445 0.68266667 5.00622222 2.38933333 1.36533333 2.048 0.22755555 3.64088889-1.36533334 5.12-0.68266667 0.56888889-1.47911111 1.25155555-2.048 2.048-1.25155555 1.82044445 0.91022222 6.94044445-3.64088888 5.34755555-4.20977778-1.47911111-4.89244445-6.82666667-5.00622222-10.69511111 0-3.64088889 4.32355555-3.29955555 7.05422222-4.20977777z m0 0" fill="#C08D06" p-id="1969"></path><path d="M387.98222222 519.50933333c1.82044445 5.00622222-1.36533333 8.76088889-3.64088889 12.51555556-1.25155555 2.048-3.41333333 3.18577778-5.46133333 0.79644444-2.27555555-2.73066667-5.46133333-6.03022222-4.20977778-9.55733333 1.36533333-3.75466667 3.64088889-0.68266667 5.68888889 0.56888889 5.12 3.18577778 3.98222222-4.32355555 7.62311111-4.32355556z m0 0" fill="#B8710E" p-id="1970"></path><path d="M371.48444445 535.552c-2.50311111 0.91022222-4.77866667 1.024-6.82666667 0.11377778-4.55111111-2.048-4.20977778-6.144-3.98222223-10.12622223 0.11377778-1.36533333-0.22755555-3.64088889 1.47911112-3.64088888 4.20977778-0.22755555 2.95822222 4.32355555 4.66488888 6.37155555 1.93422222 2.048 3.18577778 4.66488889 4.6648889 7.28177778z m0 0" fill="#BD7C09" p-id="1971"></path><path d="M423.936 456.36266667c0.56888889-3.64088889 3.41333333-2.84444445 5.68888889-2.84444445 30.49244445 0 60.98488889 0.11377778 91.36355556-0.11377777 4.89244445 0 6.25777778 1.70666667 6.25777777 6.37155555-0.22755555 20.93511111-0.11377778 41.75644445 0 62.69155555 0 3.52711111-0.56888889 5.57511111-4.77866667 6.59911112-6.03022222 1.59288889-11.71911111 4.55111111-17.63555555 6.94044444-3.75466667 0.22755555-5.91644445-0.68266667-5.80266667-5.23377778 0.34133333-9.55733333-0.11377778-18.88711111 2.50311112-28.33066666 1.36533333-4.89244445 2.84444445-10.80888889-3.75466667-14.90488889-3.18577778-1.93422222 3.18577778-5.57511111 1.36533333-8.98844445-2.048-2.95822222-5.23377778-2.27555555-8.07822222-2.61688888-3.64088889-0.45511111-6.48533333-0.91022222-6.144-6.03022223 0.34133333-6.144-4.77866667-6.59911111-9.32977778-6.82666667-4.55111111-0.22755555-7.50933333 1.70666667-6.82666666 7.05422223 0.34133333 1.70666667-0.45511111 3.52711111-1.82044445 4.55111111-4.20977778 2.27555555-9.44355555-1.024-13.42577778 2.38933333-0.11377778 2.38933333-0.45511111 4.89244445 0.68266667 7.168 1.25155555 2.61688889-0.11377778 3.41333333-2.27555556 4.89244445-4.55111111 3.072-6.25777778 8.53333333-2.73066666 12.62933333 4.55111111 5.34755555 4.096 11.15022222 4.096 17.18044445 0 5.57511111-0.11377778 11.264-0.11377778 16.8391111-10.12622222-1.36533333-6.59911111 6.25777778-7.28177778 11.03644445-0.79644445 5.80266667 2.048 7.168 7.28177778 6.82666667 4.89244445-0.34133333 9.78488889-0.11377778 14.67733333-0.11377778 6.48533333 3.072 13.42577778 0.68266667 20.13866667 1.47911111 2.73066667 0.34133333 6.144-1.024 6.48533333 3.64088889 0.34133333 4.096-1.36533333 6.71288889-5.12 7.62311111-3.98222222 1.024-8.07822222 1.93422222-12.288 1.93422222-15.01866667-0.11377778-29.92355555-0.22755555-44.94222222 0.11377778-6.37155555 0.11377778-8.76088889-1.82044445-8.53333333-8.41955555 0.34133333-12.97066667 0.11377778-25.94133333 0.11377778-39.02577778 0.22755555-21.27644445 0.22755555-42.89422222 0.22755555-64.512z m0 0" fill="#AB1519" p-id="1972"></path><path d="M458.41066667 652.62933333l-0.68266667-82.37511111c10.01244445 1.024 10.35377778 1.36533333 10.35377778 10.92266667v102.96888889c0 2.38933333-0.91022222 3.64088889-3.41333333 3.75466667-2.95822222 0.11377778-3.86844445-1.36533333-3.86844445-4.096 0-8.30577778 0.11377778-16.72533333-0.11377778-25.03111112 0-2.27555555 1.36533333-5.23377778-2.27555555-6.144z m0 0" fill="#9E1717" p-id="1973"></path><path d="M493.22666667 687.90044445l-2.95822222 1.59288888c-7.96444445 0.91022222-8.07822222 0.91022222-8.07822223-6.48533333v-104.56177778c0-2.95822222-0.22755555-5.91644445 2.16177778-8.30577777 5.68888889-1.024 7.62311111 1.024 7.62311111 7.05422222-0.22755555 33.10933333-0.11377778 66.10488889-0.11377778 99.21422222-0.11377778 3.86844445 0.22755555 7.62311111 1.36533334 11.49155556z m0 0" fill="#9F2115" p-id="1974"></path><path d="M453.40444445 684.82844445c-3.18577778-1.70666667-4.55111111-3.98222222-4.55111112-8.07822223 0.22755555-32.54044445 0.11377778-65.08088889 0.11377778-97.73511111 0-1.25155555 0-2.50311111 0.11377778-3.64088889 0.22755555-2.16177778 1.25155555-3.86844445 3.64088889-3.64088889 2.27555555 0.22755555 2.16177778 2.27555555 2.16177777 3.98222222 0 5.91644445-0.34133333 11.83288889 0.11377778 17.63555556 1.25155555 16.49777778-0.11377778 33.10933333-0.11377778 49.60711111 0 3.41333333 0 6.82666667 2.95822223 9.44355556 0 9.32977778-0.11377778 18.54577778-0.11377778 27.87555555 0.11377778 3.072-0.22755555 5.46133333-4.32355555 4.55111112z m0 0" fill="#C4AD00" p-id="1975"></path><path d="M468.992 552.27733333c0.11377778-1.70666667 0.11377778-3.41333333 0.45511111-5.12 0.56888889-3.41333333-1.82044445-8.64711111 4.096-9.216 7.05422222-0.68266667 9.55733333 2.27555555 9.78488889 10.01244445 0 1.47911111 0.22755555 2.95822222 0.45511111 4.32355555-5.00622222 2.048-9.89866667 2.38933333-14.79111111 0z m0 0" fill="#133DC3" p-id="1976"></path><path d="M471.26755555 689.152c0-37.20533333-0.11377778-74.52444445-0.11377777-111.72977778 0-3.29955555-0.34133333-6.48533333 4.66488889-6.25777777 4.66488889 0.11377778 4.096 3.18577778 4.096 6.144 0 37.77422222-0.11377778 75.43466667-0.11377778 113.20888888l-4.096 0.68266667-4.43733334-2.048z m0 0" fill="#C3B000" p-id="1977"></path><path d="M533.16266667 687.44533333c2.61688889 6.37155555 5.68888889 1.25155555 8.64711111 0.34133334 3.41333333 0.11377778 6.94044445-0.11377778 10.24 0.45511111 3.29955555 0.68266667 3.86844445 2.84444445 1.024 5.12-2.16177778 1.70666667-4.66488889 2.95822222-7.39555556 2.95822222-5.57511111 0-11.71911111-2.61688889-15.70133333 4.20977778-0.68266667 1.13777778-2.38933333-3.86844445-3.072-5.23377778-0.68266667-0.91022222-6.144 3.072-13.88088889 2.95822222-3.29955555-0.91022222-6.82666667-7.05422222-0.56888889-9.55733333 3.18577778-0.22755555 16.384 2.27555555 15.92888889-0.91022222 1.59288889-1.13777778 3.18577778-1.36533333 4.77866667-0.34133334z m0 0" fill="#2A6355" p-id="1978"></path><path d="M524.288 335.41688889c-2.16177778-6.03022222 2.95822222-4.77866667 5.80266667-5.80266667 0.45511111 0.11377778 0.91022222 0.11377778 1.36533333 0.11377778 3.18577778 3.41333333 3.64088889 5.91644445-2.16177778 5.91644445-1.70666667 0-3.41333333-0.11377778-5.00622222-0.22755556z m0 0" fill="#1F63A5" p-id="1979"></path><path d="M446.57777778 395.71911111c0.68266667 0 1.47911111-0.11377778 2.16177777-0.11377778 2.73066667 0.22755555 7.168-0.79644445 7.168 2.73066667 0.11377778 3.18577778-1.024 7.85066667-6.37155555 7.85066667-3.18577778 0-5.91644445-1.024-7.05422222-4.20977778-1.13777778-3.52711111 2.73066667-4.20977778 4.096-6.25777778z m0 0" fill="#A68503" p-id="1980"></path><path d="M580.38044445 639.08977778c-0.11377778 2.27555555 0.11377778 4.43733333-1.36533334 6.37155555-2.95822222 3.98222222-2.84444445 8.07822222 0 12.17422222 1.36533333 1.93422222 1.36533333 4.096 1.36533334 6.37155556 0 2.16177778 0.22755555 4.66488889-2.38933334 5.57511111-2.16177778 0.91022222-4.43733333 0.56888889-5.91644444-1.47911111-2.048-2.73066667-5.12-3.64088889-8.07822222-4.66488889-2.38933333-0.91022222-5.57511111-0.79644445-5.6888889-4.55111111-0.22755555-3.98222222 0.79644445-8.192 4.32355556-9.44355556 6.25777778-2.16177778 10.58133333-5.12 11.83288889-11.94666666 0.22755555-1.47911111 2.27555555-4.32355555 4.77866667-3.52711111 2.048 0.79644445 0.68266667 3.52711111 1.13777778 5.12z m0 0" fill="#AD1E17" p-id="1981"></path><path d="M587.43466667 633.96977778c5.23377778 2.27555555 1.36533333 9.32977778 5.46133333 11.71911111 3.98222222 2.27555555 9.10222222 2.38933333 12.288 6.144 3.64088889 4.20977778 2.048 10.12622222-3.29955555 11.60533333-3.29955555 0.91022222-6.48533333 2.27555555-9.216 4.20977778-5.00622222 3.41333333-9.44355555 1.47911111-7.50933334-3.52711111 3.98222222-10.12622222 0.34133333-19.91111111 1.47911111-29.696-0.11377778-0.11377778 0.22755555-0.22755555 0.79644445-0.45511111z m0 0" fill="#AD1D17" p-id="1982"></path><path d="M588.68622222 620.43022222c2.38933333-3.41333333 5.12-6.37155555 9.32977778-7.85066667 4.32355555-1.47911111 7.85066667-4.096 7.62311111-9.44355555-0.11377778-2.38933333 1.82044445-3.86844445 3.29955556-5.57511111 1.47911111-1.70666667 2.73066667-5.23377778 5.46133333-3.52711111 2.38933333 1.47911111-0.68266667 3.75466667-1.024 5.80266667-0.68266667 4.096-1.70666667 8.192 1.93422222 11.60533333 2.27555555 2.16177778 1.13777778 4.55111111-0.22755555 6.59911111-1.36533333 2.16177778-3.98222222 4.77866667-5.80266667 3.29955556-7.05422222-5.57511111-13.42577778-0.45511111-20.13866667 0.11377777l-0.45511111-0.45511111v-0.56888889z m0 0" fill="#AD1F17" p-id="1983"></path><path d="M609.16622222 588.34488889c-2.27555555 4.89244445-4.55111111 9.44355555-9.89866667 11.15022222-4.55111111 1.47911111-7.50933333 3.86844445-7.6231111 9.32977778-0.11377778 2.61688889-1.82044445 5.80266667-5.12 4.43733333-2.61688889-1.024-2.38933333-4.32355555-0.91022223-6.37155555 2.95822222-4.32355555 2.27555555-8.53333333 0.79644445-13.19822222-1.47911111-4.43733333 2.27555555-7.85066667 6.03022222-5.46133334 5.80266667 3.64088889 10.80888889 2.38933333 16.72533333 0.11377778z m0 0" fill="#AE2117" p-id="1984"></path><path d="M557.16977778 627.59822222c6.25777778 1.70666667 12.51555555 1.47911111 18.65955555-0.22755555l-0.11377778-0.11377778c-1.36533333 2.95822222-3.64088889 5.57511111-6.37155555 6.71288889-5.80266667 2.38933333-9.89866667 5.34755555-10.58133333 12.288-0.22755555 2.048-2.84444445 5.00622222-6.03022222 3.86844444-2.95822222-1.13777778-2.27555555-3.98222222-1.5928889-6.37155555 0.79644445-2.84444445 2.16177778-5.57511111-0.11377777-8.192l6.144-7.96444445z m0 0" fill="#AD2017" p-id="1985"></path><path d="M615.65155555 632.37688889c-3.64088889 4.77866667-3.64088889 10.35377778-1.82044444 16.27022222 0.34133333 1.13777778-1.024 2.048-2.38933333 2.16177778-2.84444445 0.11377778-5.46133333-1.59288889-5.46133333-3.86844444-0.11377778-7.96444445-4.66488889-11.60533333-11.37777778-13.8808889-1.70666667-0.56888889-4.096-2.16177778-3.18577778-4.20977777 1.024-2.61688889 3.29955555-0.45511111 5.00622222-0.11377778 3.98222222 0.56888889 7.62311111-0.34133333 11.49155556-1.13777778 3.41333333-0.79644445 7.05422222-0.45511111 7.73688888 4.77866667z m0 0" fill="#AE2217" p-id="1986"></path><path d="M588.68622222 620.43022222c0.11377778 0.34133333 0.22755555 0.68266667 0.34133333 1.13777778-0.91022222 9.44355555-3.86844445 10.80888889-13.312 5.80266667l0.11377778 0.11377778v-5.91644445l-0.11377778 0.11377778c4.096-3.98222222 8.192-6.144 12.97066667-1.25155556z m0 0" fill="#368F53" p-id="1987"></path><path d="M465.12355555 509.72444445c1.59288889 2.95822222 3.41333333 5.57511111 3.52711112 9.216 0.22755555 4.89244445-1.47911111 7.28177778-6.37155556 7.05422222-7.73688889-1.59288889-3.86844445-7.62311111-4.20977778-11.71911112-0.34133333-4.89244445 3.52711111-4.77866667 7.05422222-4.5511111z m0 0" fill="#183B9F" p-id="1988"></path><path d="M490.26844445 525.99466667l-5.46133334-0.45511112c-0.11377778-2.84444445-0.45511111-5.80266667-0.45511111-8.6471111-0.11377778-3.18577778 0.68266667-5.91644445 4.55111111-6.144 3.41333333-0.22755555 6.144 1.82044445 6.25777778 4.77866666 0.22755555 3.86844445 0.91022222 8.87466667-4.89244444 10.46755556z m0 0" fill="#0C34AB" p-id="1989"></path><path d="M491.63377778 498.91555555c-3.072 0-3.86844445-2.27555555-3.98222223-4.32355555-0.11377778-2.27555555-0.11377778-5.46133333 2.73066667-5.91644445 3.18577778-0.56888889 4.66488889 2.048 5.12 5.00622223 0.56888889 2.95822222-1.47911111 4.20977778-3.86844444 5.23377777z m0 0" fill="#9F8D00" p-id="1990"></path><path d="M459.09333333 487.87911111c2.61688889 0.79644445 4.096 2.27555555 4.43733334 4.66488889 0.34133333 2.16177778 0.56888889 4.66488889-2.50311112 5.00622222-2.61688889 0.34133333-3.18577778-1.70666667-3.18577777-3.75466667 0-1.93422222-0.34133333-4.20977778 1.25155555-5.91644444z m0 0" fill="#A18F00" p-id="1991"></path><path d="M475.36355555 491.63377778c1.70666667 0 2.95822222 0.68266667 2.95822223 2.38933333 0 1.93422222-0.56888889 4.20977778-2.84444445 4.20977778-1.82044445 0-2.38933333-2.16177778-2.61688888-3.75466667-0.34133333-1.70666667 0.68266667-2.73066667 2.5031111-2.84444444z m0 0" fill="#AD9900" p-id="1992"></path><path d="M541.01333333 550.79822222c1.13777778 0.91022222 2.27555555 1.59288889 2.84444445 2.50311111 1.59288889 3.18577778 5.12 7.73688889 4.096 9.44355556-1.70666667 2.95822222-3.98222222 5.46133333-4.66488889 8.98844444-0.11377778 0.56888889-2.16177778 1.25155555-3.18577778 1.024-5.80266667-1.25155555-5.46133333-7.39555555-6.25777778-10.92266666-0.91022222-3.52711111 3.29955555-7.96444445 7.168-11.03644445z m0 0" fill="#918D1A" p-id="1993"></path><path d="M530.31822222 569.79911111c2.95822222 1.93422222 3.52711111 6.25777778 5.23377778 9.10222222 2.50311111 4.32355555-2.61688889 8.41955555-4.77866667 12.40177778-0.91022222 1.82044445-4.89244445 0.56888889-5.34755555-1.47911111-0.91022222-4.096-6.48533333-8.64711111-0.34133333-12.74311111 1.82044445-1.25155555 1.82044445-2.73066667 2.048-4.32355556 0.22755555-1.36533333 0.56888889-2.73066667 3.18577777-2.95822222z m0 0" fill="#898314" p-id="1994"></path><path d="M525.53955555 546.92977778c0 8.41955555-0.11377778 20.13866667-6.48533333 19.68355555-3.18577778-0.22755555-2.73066667-3.86844445-4.096-5.00622222-8.07822222-6.82666667 6.59911111-20.93511111 10.58133333-14.67733333" fill="#657234" p-id="1995"></path><path d="M540.78577778 684.032c-2.16177778 2.84444445-12.17422222 2.50311111-18.65955556 1.70666667-3.75466667-0.45511111-4.66488889-8.53333333-1.024-9.78488889 8.87466667-2.84444445 8.87466667-2.84444445 18.88711111-1.70666667 1.25155555 4.096 3.072 5.91644445 0.79644445 9.78488889z m0 0" fill="#D6B37C" p-id="1996"></path><path d="M527.58755555 685.16977778c-0.79644445-4.096-0.79644445-8.192 1.024-12.06044445 2.50311111-0.68266667 2.95822222 1.70666667 4.20977778 2.84444445 2.84444445 3.75466667 1.25155555 7.62311111 0.45511112 11.49155555l-4.6648889 0.22755556-1.024-2.50311111z m0 0" fill="#822C24" p-id="1997"></path><path d="M593.57866667 503.58044445c2.50311111-1.82044445 2.61688889-5.12 4.32355555-7.50933334 5.12-1.59288889 5.12-5.34755555 3.98222223-9.32977778-0.79644445-2.61688889-1.47911111-5.23377778-0.22755556-7.85066666 1.13777778-2.38933333 3.29955555-3.98222222 6.03022222-3.18577778 3.072 0.91022222 1.93422222 3.29955555 1.47911111 5.46133333-1.47911111 7.28177778-0.91022222 14.44977778 0.45511111 21.84533333 2.27555555 12.85688889 0.68266667 14.336-11.49155555 12.288-2.048-3.75466667-3.98222222-7.39555555-4.55111111-11.7191111z m0 0" fill="#D7D4D5" p-id="1998"></path><path d="M581.17688889 399.47377778c-0.68266667 0-1.47911111-0.11377778-2.16177778-0.11377778-3.75466667 0.11377778-7.168-0.34133333-6.48533333-5.34755555 0.45511111-3.18577778 3.18577778-4.32355555 5.34755555-3.072 2.95822222 1.59288889 8.07822222 2.95822222 4.55111112 8.41955555-0.45511111 0-0.91022222 0.11377778-1.25155556 0.11377778z m0 0" fill="#B08D03" p-id="1999"></path><path d="M524.288 394.35377778c0.11377778-0.91022222 0.11377778-1.82044445 0.11377778-2.73066667 2.048 0 4.096-2.50311111 6.03022222-0.11377778 0.91022222 1.13777778 0.79644445 2.27555555-0.22755555 3.18577778-2.048 2.16177778-3.98222222 0.79644445-5.91644445-0.34133333z m0 0" fill="#A91718" p-id="2000"></path></svg>